#N canvas 171 223 751 525 12;
#X obj 318 296 vline~;
#X obj 318 320 snapshot~;
#X floatatom 318 341 5 0 0 0 - - - 0;
#X obj 440 301 metro 1;
#X obj 440 278 tgl 15 0 empty empty empty 17 7 0 10 #fcfcfc #000000
#000000 0 1;
#X floatatom 318 79 5 0 0 0 - - - 0;
#X floatatom 355 79 5 0 0 0 - - - 0;
#X floatatom 392 79 5 0 0 0 - - - 0;
#X obj 256 97 t b;
#X obj 18 82 bng 15 250 50 0 empty empty empty 17 7 0 10 #fcfcfc #000000
#000000;
#X obj 183 316 outlet~;
#X obj 112 126 hsl 128 15 0 1000 0 0 empty empty A -2 -8 0 10 #fcfcfc
#000000 #000000 0 1;
#X obj 112 158 hsl 128 15 50 1000 0 0 empty empty D -2 -8 0 10 #fcfcfc
#000000 #000000 0 1;
#X obj 112 222 hsl 128 15 50 2000 0 0 empty empty R -2 -8 0 10 #fcfcfc
#000000 #000000 0 1;
#X obj 107 4 loadbang;
#X obj 18 5 inlet bang;
#X obj 18 211 t b;
#X obj 18 361 s \$0-ADR;
#X obj 475 4 r \$0-ADR;
#X obj 107 62 unpack f f f f;
#X obj 112 190 hsl 128 15 0 1600 0 0 empty empty S -2 -8 0 10 #fcfcfc
#000000 #000000 0 1;
#X obj 18 332 pack f f f f;
#X msg 475 28 \$1 \$2 \$3 \$4;
#X floatatom 365 145 5 0 0 0 - - - 0;
#X floatatom 454 164 5 0 0 0 - - - 0;
#X msg 318 239 1 \$1 \, 0.5 \$2 \$3 \, 0.5 0 \$4 \, 0 \$5 \$6;
#X obj 318 47 unpack f f f f;
#X floatatom 429 79 5 0 0 0 - - - 0;
#X obj 365 121 expr $f1+$f2;
#X obj 454 140 expr $f1+$f2;
#X msg 107 29 50 800 100 500;
#X obj 318 208 pack f f f f f f;
#X floatatom 543 183 5 0 0 0 - - - 0;
#X obj 543 159 expr $f1+$f2;
#X connect 0 0 1 0;
#X connect 0 0 10 0;
#X connect 1 0 2 0;
#X connect 3 0 1 0;
#X connect 4 0 3 0;
#X connect 5 0 28 0;
#X connect 5 0 31 0;
#X connect 6 0 8 0;
#X connect 6 0 28 1;
#X connect 6 0 31 1;
#X connect 7 0 8 0;
#X connect 7 0 29 1;
#X connect 8 0 31 0;
#X connect 9 0 8 0;
#X connect 9 0 21 0;
#X connect 11 0 21 0;
#X connect 12 0 16 0;
#X connect 12 0 21 1;
#X connect 13 0 16 0;
#X connect 13 0 21 3;
#X connect 14 0 30 0;
#X connect 15 0 9 0;
#X connect 16 0 21 0;
#X connect 18 0 22 0;
#X connect 19 0 11 0;
#X connect 19 1 12 0;
#X connect 19 2 20 0;
#X connect 19 3 13 0;
#X connect 20 0 21 2;
#X connect 20 0 16 0;
#X connect 21 0 17 0;
#X connect 22 0 26 0;
#X connect 25 0 0 0;
#X connect 26 0 5 0;
#X connect 26 1 6 0;
#X connect 26 2 7 0;
#X connect 26 3 27 0;
#X connect 27 0 31 4;
#X connect 27 0 33 1;
#X connect 28 0 23 0;
#X connect 28 0 29 0;
#X connect 28 0 31 2;
#X connect 29 0 24 0;
#X connect 29 0 31 3;
#X connect 29 0 33 0;
#X connect 30 0 19 0;
#X connect 30 0 26 0;
#X connect 31 0 25 0;
#X connect 33 0 32 0;
#X connect 33 0 31 5;
#X coords 0 -1 1 1 149 146 1 100 100;
