#N canvas 267 374 802 525 12;
#X obj 318 353 vline~;
#X obj 318 442 snapshot~;
#X floatatom 318 463 5 0 0 0 - - - 0;
#X obj 440 423 metro 1;
#X obj 440 400 tgl 15 0 empty empty empty 17 7 0 10 #fcfcfc #000000
#000000 0 1;
#X floatatom 318 79 5 0 0 0 - - - 0;
#X floatatom 355 79 5 0 0 0 - - - 0;
#X floatatom 392 79 5 0 0 0 - - - 0;
#X obj 107 4 loadbang;
#X obj 18 5 inlet bang;
#X obj 18 216 t b;
#X obj 18 361 s \$0-ADR;
#X obj 475 4 r \$0-ADR;
#X obj 107 62 unpack f f f f;
#X obj 18 332 pack f f f f;
#X msg 475 28 \$1 \$2 \$3 \$4;
#X obj 318 47 unpack f f f f;
#X floatatom 429 79 5 0 0 0 - - - 0;
#X obj 370 119 expr $f1+$f2;
#X obj 454 140 expr $f1+$f2;
#X msg 107 29 50 800 100 500;
#X obj 548 159 expr $f1+$f2;
#X obj 318 208 pack f f f f f f f;
#X obj 252 150 delay;
#X obj 18 29 s \$0-bang;
#X obj 252 125 r \$0-bang;
#X floatatom 108 132 5 0 2000 2 D - - 0;
#X floatatom 108 165 5 0 1000 2 A - - 0;
#X floatatom 108 198 5 50 1000 2 D - - 0;
#X floatatom 108 231 5 0 1600 2 S - - 0;
#X floatatom 108 264 5 100 2000 2 R - - 0;
#X obj 164 476 outlet~ note;
#X obj 163 347 inlet~ note;
#X obj 163 371 *~;
#X msg 41 113 0;
#X obj 550 97 t b;
#X floatatom 370 143 5 0 0 0 - - - 0;
#X obj 768 204 tgl 15 0 empty empty empty 17 7 0 10 #fcfcfc #000000
#000000 0 1;
#X obj 729 315 spigot;
#X obj 735 203 tgl 15 0 empty empty empty 17 7 0 10 #fcfcfc #000000
#000000 0 1;
#X obj 696 271 spigot;
#X msg 557 334 0.9 \$2 \, 0.5 \$3 \$4 \, 0 \$6 \$7;
#X msg 318 290 0.9 \$2 \, 0.5 \$3 \$4 \, 0.4 20 \$5 \, 0 \$6 \$7;
#X obj 619 44 expr;
#X obj 679 97 expr $f1==0 \; $f1 > 0;
#X connect 0 0 1 0;
#X connect 0 0 33 1;
#X connect 1 0 2 0;
#X connect 3 0 1 0;
#X connect 4 0 3 0;
#X connect 5 0 18 0;
#X connect 5 0 22 1;
#X connect 6 0 18 1;
#X connect 6 0 22 2;
#X connect 6 0 35 0;
#X connect 7 0 19 1;
#X connect 7 0 35 0;
#X connect 7 0 44 0;
#X connect 8 0 20 0;
#X connect 8 0 34 0;
#X connect 9 0 24 0;
#X connect 10 0 14 0;
#X connect 12 0 15 0;
#X connect 13 0 27 0;
#X connect 13 1 28 0;
#X connect 13 2 29 0;
#X connect 13 3 30 0;
#X connect 14 0 11 0;
#X connect 15 0 16 0;
#X connect 16 0 5 0;
#X connect 16 1 6 0;
#X connect 16 2 7 0;
#X connect 16 3 17 0;
#X connect 17 0 21 1;
#X connect 17 0 22 5;
#X connect 17 0 35 0;
#X connect 18 0 19 0;
#X connect 18 0 22 3;
#X connect 18 0 36 0;
#X connect 19 0 21 0;
#X connect 19 0 22 4;
#X connect 20 0 13 0;
#X connect 20 0 16 0;
#X connect 21 0 22 6;
#X connect 22 0 38 0;
#X connect 22 0 40 0;
#X connect 23 0 22 0;
#X connect 25 0 23 0;
#X connect 26 0 23 1;
#X connect 27 0 14 0;
#X connect 28 0 10 0;
#X connect 28 0 14 1;
#X connect 29 0 14 2;
#X connect 29 0 10 0;
#X connect 30 0 14 3;
#X connect 30 0 10 0;
#X connect 32 0 33 0;
#X connect 33 0 31 0;
#X connect 34 0 26 0;
#X connect 35 0 18 0;
#X connect 35 0 19 0;
#X connect 35 0 21 0;
#X connect 37 0 38 1;
#X connect 38 0 41 0;
#X connect 39 0 40 1;
#X connect 40 0 42 0;
#X connect 41 0 0 0;
#X connect 42 0 0 0;
#X connect 44 0 37 0;
#X connect 44 1 39 0;
#X coords 0 -1 1 1 63 189 1 100 100;
