#N canvas 104 104 450 300 12;
#X text 324 176 Glisando;
#X text 66 217 No Glisando;
#X obj 61 42 inlet note;
#X obj 111 238 == 0;
#X obj 277 252 == 1;
#X obj 326 226 line;
#X obj 182 271 outlet;
#X obj 326 252 spigot;
#X obj 61 238 spigot;
#X obj 176 238 loadbang;
#X msg 146 238 0;
#X obj 167 183 pack f f;
#X obj 155 133 tgl 15 0 empty empty empty 17 7 0 10 #fcfcfc #000000
#000000 0 1;
#X floatatom 107 130 5 0 1000 2 ms - - 0;
#X msg 326 202 \$1 \$2;
#X connect 2 0 8 0;
#X connect 2 0 11 0;
#X connect 3 0 8 1;
#X connect 4 0 7 1;
#X connect 5 0 7 0;
#X connect 7 0 6 0;
#X connect 8 0 6 0;
#X connect 9 0 10 0;
#X connect 10 0 3 0;
#X connect 11 0 14 0;
#X connect 12 0 3 0;
#X connect 12 0 4 0;
#X connect 13 0 11 1;
#X connect 14 0 5 0;
#X coords 0 -1 1 1 85 51 1 100 100;
