#N canvas 476 262 751 550 12;
#X obj 25 292 osc~;
#X obj 25 327 *~;
#X obj 107 123 vsl 15 50 0 1 0 0 empty empty empty 0 -9 0 10 #fcfcfc
#000000 #000000 0 1;
#X obj 100 293 osc~;
#X obj 100 328 *~;
#X obj 128 123 vsl 15 50 0 1 0 0 empty empty empty 0 -9 0 10 #fcfcfc
#000000 #000000 0 1;
#X obj 137 293 osc~;
#X obj 137 328 *~;
#X obj 152 123 vsl 15 50 0 1 0 0 empty empty empty 0 -9 0 10 #fcfcfc
#000000 #000000 0 1;
#X obj 220 293 osc~;
#X obj 220 328 *~;
#X obj 176 123 vsl 15 50 0 1 0 0 empty empty empty 0 -9 0 10 #fcfcfc
#000000 #000000 0 1;
#X obj 300 294 osc~;
#X obj 300 329 *~;
#X obj 199 123 vsl 15 50 0 1 0 0 empty empty empty 0 -9 0 10 #fcfcfc
#000000 #000000 0 1;
#X floatatom 526 325 5 0 0 0 - - - 0;
#X obj 429 176 bng 15 250 50 0 empty empty empty 17 7 0 10 #fcfcfc
#000000 #000000;
#X obj 533 176 >= 0.05;
#X obj 479 176 >= 0.05;
#X obj 641 176 >= 0.05;
#X obj 587 176 >= 0.05;
#X obj 63 76 loadbang;
#X msg 63 100 1;
#X obj 508 395 /;
#X obj 534 255 expr $i1 + $i2 + $i3 + $i4 + 1, f 11;
#X obj 508 284 bng 15 250 50 0 empty empty empty 17 7 0 10 #fcfcfc
#000000 #000000;
#X obj 508 443 line;
#X msg 508 419 \$1 250;
#X obj 579 376 inlet volumen;
#X obj 25 33 inlet note;
#X obj 100 208 expr $f1 * 2 \; $f1 * 3 \; $f1 * 4 \; $f1 * 5;
#X floatatom 508 467 5 0 0 0 - - - 0;
#X obj 24 444 outlet~ h1;
#X obj 99 490 outlet~ h2;
#X obj 136 458 outlet~ h3;
#X obj 219 467 outlet~ h4;
#X obj 300 492 outlet~ h5;
#X obj 508 494 outlet volume;
#X connect 0 0 1 0;
#X connect 1 0 32 0;
#X connect 2 0 1 1;
#X connect 3 0 4 0;
#X connect 4 0 33 0;
#X connect 5 0 4 1;
#X connect 5 0 16 0;
#X connect 5 0 18 0;
#X connect 6 0 7 0;
#X connect 7 0 34 0;
#X connect 8 0 7 1;
#X connect 8 0 16 0;
#X connect 8 0 17 0;
#X connect 9 0 10 0;
#X connect 10 0 35 0;
#X connect 11 0 10 1;
#X connect 11 0 20 0;
#X connect 11 0 16 0;
#X connect 12 0 13 0;
#X connect 13 0 36 0;
#X connect 14 0 13 1;
#X connect 14 0 19 0;
#X connect 14 0 16 0;
#X connect 15 0 23 1;
#X connect 16 0 24 0;
#X connect 16 0 25 0;
#X connect 17 0 24 1;
#X connect 18 0 24 0;
#X connect 19 0 24 3;
#X connect 20 0 24 2;
#X connect 21 0 22 0;
#X connect 21 0 16 0;
#X connect 22 0 2 0;
#X connect 23 0 27 0;
#X connect 24 0 15 0;
#X connect 25 0 23 0;
#X connect 26 0 31 0;
#X connect 27 0 26 0;
#X connect 28 0 23 0;
#X connect 29 0 0 0;
#X connect 29 0 30 0;
#X connect 30 0 3 0;
#X connect 30 1 6 0;
#X connect 30 2 9 0;
#X connect 30 3 12 0;
#X connect 31 0 37 0;
#X coords 0 -1 1 1 104 88 1 100 100;
