#N canvas 11 197 751 523 12;
#X obj 25 292 osc~;
#X obj 25 327 *~;
#X obj 63 295 vsl 15 50 0 1 0 0 empty empty empty 0 -9 0 10 #fcfcfc
#000000 #000000 0 1;
#X obj 88 293 osc~;
#X obj 88 328 *~;
#X obj 106 123 vsl 15 50 0 1 0 0 empty empty empty 0 -9 0 10 #fcfcfc
#000000 #000000 0 1;
#X obj 187 293 osc~;
#X obj 187 328 *~;
#X obj 130 123 vsl 15 50 0 1 0 0 empty empty empty 0 -9 0 10 #fcfcfc
#000000 #000000 0 1;
#X obj 292 293 osc~;
#X obj 292 328 *~;
#X obj 154 123 vsl 15 50 0 1 0 0 empty empty empty 0 -9 0 10 #fcfcfc
#000000 #000000 0 1;
#X obj 399 293 osc~;
#X obj 399 328 *~;
#X obj 177 123 vsl 15 50 0 1 0 0 empty empty empty 0 -9 0 10 #fcfcfc
#000000 #000000 0 1;
#X obj 24 446 *~;
#X obj 25 482 outlet~;
#X floatatom 526 325 5 0 0 0 - - - 0;
#X obj 430 193 bng 15 250 50 0 empty empty empty 17 7 0 10 #fcfcfc
#000000 #000000;
#X obj 533 193 >= 0.05;
#X obj 479 193 >= 0.05;
#X obj 641 193 >= 0.05;
#X obj 587 193 >= 0.05;
#X obj 63 76 loadbang;
#X msg 63 100 1;
#X obj 508 379 /;
#X obj 534 255 expr $i1 + $i2 + $i3 + $i4 + 1, f 11;
#X obj 508 284 bng 15 250 50 0 empty empty empty 17 7 0 10 #fcfcfc
#000000 #000000;
#X obj 508 427 line;
#X msg 508 403 \$1 250;
#X obj 579 360 inlet volumen;
#X obj 25 33 inlet note;
#X obj 88 208 expr $f1 * 2 \; $f1 * 3 \; $f1 * 4 \; $f1 * 5;
#X obj 88 368 *~;
#X obj 187 368 *~;
#X obj 292 368 *~;
#X obj 399 368 *~;
#X obj 214 33 inlet~ II;
#X obj 297 33 inlet~ III;
#X obj 391 33 inlet~ IV;
#X obj 214 57 s~ \$0-II;
#X obj 297 57 s~ \$0-III;
#X obj 391 57 s~ \$0-IV;
#X obj 123 368 r~ \$0-II;
#X obj 222 368 r~ \$0-III;
#X obj 327 368 r~ \$0-IV;
#X obj 464 34 inlet~ V;
#X obj 464 58 s~ \$0-V;
#X obj 436 368 r~ \$0-V;
#X connect 0 0 1 0;
#X connect 1 0 15 0;
#X connect 2 0 1 1;
#X connect 3 0 4 0;
#X connect 4 0 33 0;
#X connect 5 0 4 1;
#X connect 5 0 18 0;
#X connect 5 0 20 0;
#X connect 6 0 7 0;
#X connect 7 0 34 0;
#X connect 8 0 7 1;
#X connect 8 0 18 0;
#X connect 8 0 19 0;
#X connect 9 0 10 0;
#X connect 10 0 35 0;
#X connect 11 0 10 1;
#X connect 11 0 22 0;
#X connect 11 0 18 0;
#X connect 12 0 13 0;
#X connect 13 0 36 0;
#X connect 14 0 13 1;
#X connect 14 0 21 0;
#X connect 14 0 18 0;
#X connect 15 0 16 0;
#X connect 17 0 25 1;
#X connect 18 0 26 0;
#X connect 18 0 27 0;
#X connect 19 0 26 1;
#X connect 20 0 26 0;
#X connect 21 0 26 3;
#X connect 22 0 26 2;
#X connect 23 0 24 0;
#X connect 23 0 18 0;
#X connect 24 0 2 0;
#X connect 25 0 29 0;
#X connect 26 0 17 0;
#X connect 27 0 25 0;
#X connect 28 0 15 1;
#X connect 29 0 28 0;
#X connect 30 0 25 0;
#X connect 31 0 0 0;
#X connect 31 0 32 0;
#X connect 32 0 3 0;
#X connect 32 1 6 0;
#X connect 32 2 9 0;
#X connect 32 3 12 0;
#X connect 33 0 15 0;
#X connect 34 0 15 0;
#X connect 35 0 15 0;
#X connect 36 0 15 0;
#X connect 37 0 40 0;
#X connect 38 0 41 0;
#X connect 39 0 42 0;
#X connect 43 0 33 1;
#X connect 44 0 34 1;
#X connect 45 0 35 1;
#X connect 46 0 47 0;
#X connect 48 0 36 1;
#X coords 0 -1 1 1 104 88 1 100 100;
