#N canvas 66 173 1095 550 12;
#X obj 25 292 osc~;
#X obj 25 327 *~;
#X obj 106 124 vsl 15 50 0 1 0 0 empty empty empty 0 -9 0 10 #fcfcfc
#000000 #000000 0 1;
#X obj 100 293 osc~;
#X obj 100 328 *~;
#X obj 129 124 vsl 15 50 0 1 0 0 empty empty empty 0 -9 0 10 #fcfcfc
#000000 #000000 0 1;
#X obj 137 293 osc~;
#X obj 137 328 *~;
#X obj 153 124 vsl 15 50 0 1 0 0 empty empty empty 0 -9 0 10 #fcfcfc
#000000 #000000 0 1;
#X obj 220 293 osc~;
#X obj 220 328 *~;
#X obj 177 124 vsl 15 50 0 1 0 0 empty empty empty 0 -9 0 10 #fcfcfc
#000000 #000000 0 1;
#X obj 300 294 osc~;
#X obj 300 329 *~;
#X obj 200 124 vsl 15 50 0 1 0 0 empty empty empty 0 -9 0 10 #fcfcfc
#000000 #000000 0 1;
#X floatatom 797 329 5 0 0 0 - - - 0;
#X obj 690 180 bng 15 250 50 0 empty empty empty 17 7 0 10 #fcfcfc
#000000 #000000;
#X obj 804 180 >= 0.05;
#X obj 750 180 >= 0.05;
#X obj 912 180 >= 0.05;
#X obj 858 180 >= 0.05;
#X obj 63 76 loadbang;
#X msg 63 100 1;
#X obj 779 399 /;
#X obj 779 288 bng 15 250 50 0 empty empty empty 17 7 0 10 #fcfcfc
#000000 #000000;
#X obj 779 447 line;
#X msg 779 423 \$1 250;
#X obj 850 380 inlet volumen;
#X obj 25 33 inlet note;
#X floatatom 779 471 5 0 0 0 - - - 0;
#X obj 24 444 outlet~ h1;
#X obj 99 490 outlet~ h2;
#X obj 136 458 outlet~ h3;
#X obj 219 467 outlet~ h4;
#X obj 300 492 outlet~ h5;
#X obj 779 498 outlet volume;
#X obj 222 124 vsl 15 50 0 1 0 0 empty empty empty 0 -9 0 10 #fcfcfc
#000000 #000000 0 1;
#X obj 246 124 vsl 15 50 0 1 0 0 empty empty empty 0 -9 0 10 #fcfcfc
#000000 #000000 0 1;
#X obj 270 124 vsl 15 50 0 1 0 0 empty empty empty 0 -9 0 10 #fcfcfc
#000000 #000000 0 1;
#X obj 293 124 vsl 15 50 0 1 0 0 empty empty empty 0 -9 0 10 #fcfcfc
#000000 #000000 0 1;
#X obj 348 294 osc~;
#X obj 348 329 *~;
#X obj 431 294 osc~;
#X obj 431 329 *~;
#X obj 511 295 osc~;
#X obj 511 330 *~;
#X obj 571 297 osc~;
#X obj 571 332 *~;
#X obj 347 459 outlet~ h6;
#X obj 430 468 outlet~ h7;
#X obj 512 493 outlet~ h8;
#X obj 570 462 outlet~ h9;
#X obj 805 140 >= 0.05;
#X obj 751 140 >= 0.05;
#X obj 913 140 >= 0.05;
#X obj 859 140 >= 0.05;
#X obj 982 180 >= 0.05;
#X obj 170 20 inlet pack;
#X obj 170 60 unpack f f f f f f f f f f, f 17;
#X obj 424 52 expr $f1 * 2 \; $f1 * 3 \; $f1 * 4 \; $f1 * 5 \; $f1
* 6 \; $f1 * 7 \; $f1 * 8 \; $f1 * 9 \; $f1 * 10, f 14;
#X obj 660 300 osc~;
#X obj 660 335 *~;
#X obj 660 490 outlet~ h10;
#X obj 317 124 vsl 15 50 0 1 0 0 empty empty empty 0 -9 0 10 #fcfcfc
#000000 #000000 0 1;
#X obj 982 141 >= 0.05;
#X obj 797 258 expr $i1 + $i2 + $i3 + $i4 + $i5 + $i6 + $i7 + $i8 +
$i9 + $i10, f 25;
#X connect 0 0 1 0;
#X connect 1 0 30 0;
#X connect 2 0 1 1;
#X connect 2 0 56 0;
#X connect 3 0 4 0;
#X connect 4 0 31 0;
#X connect 5 0 4 1;
#X connect 5 0 16 0;
#X connect 5 0 18 0;
#X connect 6 0 7 0;
#X connect 7 0 32 0;
#X connect 8 0 7 1;
#X connect 8 0 16 0;
#X connect 8 0 17 0;
#X connect 9 0 10 0;
#X connect 10 0 33 0;
#X connect 11 0 10 1;
#X connect 11 0 20 0;
#X connect 11 0 16 0;
#X connect 12 0 13 0;
#X connect 13 0 34 0;
#X connect 14 0 13 1;
#X connect 14 0 19 0;
#X connect 14 0 16 0;
#X connect 15 0 23 1;
#X connect 16 0 24 0;
#X connect 16 0 65 0;
#X connect 17 0 65 1;
#X connect 18 0 65 0;
#X connect 19 0 65 3;
#X connect 20 0 65 2;
#X connect 21 0 22 0;
#X connect 21 0 16 0;
#X connect 22 0 2 0;
#X connect 23 0 26 0;
#X connect 24 0 23 0;
#X connect 25 0 29 0;
#X connect 26 0 25 0;
#X connect 27 0 23 0;
#X connect 28 0 0 0;
#X connect 28 0 59 0;
#X connect 29 0 35 0;
#X connect 36 0 41 1;
#X connect 36 0 53 0;
#X connect 36 0 16 0;
#X connect 37 0 43 1;
#X connect 37 0 52 0;
#X connect 37 0 16 0;
#X connect 38 0 45 1;
#X connect 38 0 55 0;
#X connect 38 0 16 0;
#X connect 39 0 47 1;
#X connect 39 0 54 0;
#X connect 39 0 16 0;
#X connect 40 0 41 0;
#X connect 41 0 48 0;
#X connect 42 0 43 0;
#X connect 43 0 49 0;
#X connect 44 0 45 0;
#X connect 45 0 50 0;
#X connect 46 0 47 0;
#X connect 47 0 51 0;
#X connect 52 0 65 5;
#X connect 53 0 65 4;
#X connect 54 0 65 7;
#X connect 55 0 65 6;
#X connect 56 0 65 8;
#X connect 57 0 58 0;
#X connect 58 0 2 0;
#X connect 58 1 5 0;
#X connect 58 2 8 0;
#X connect 58 3 11 0;
#X connect 58 4 14 0;
#X connect 58 5 36 0;
#X connect 58 6 37 0;
#X connect 58 7 38 0;
#X connect 58 8 39 0;
#X connect 58 9 63 0;
#X connect 59 0 3 0;
#X connect 59 1 6 0;
#X connect 59 2 9 0;
#X connect 59 3 12 0;
#X connect 59 4 40 0;
#X connect 59 5 42 0;
#X connect 59 6 44 0;
#X connect 59 7 46 0;
#X connect 59 8 60 0;
#X connect 60 0 61 0;
#X connect 61 0 62 0;
#X connect 63 0 61 1;
#X connect 63 0 16 0;
#X connect 63 0 64 0;
#X connect 64 0 65 9;
#X connect 65 0 15 0;
#X coords 0 -1 1 1 235 80 1 99 104;
