#N canvas 523 123 634 597 12;
#X obj 194 411 osc~;
#X obj 313 411 phasor~;
#X obj 248 411 phasor~;
#X floatatom 182 568 0 0 0 0 - - - 0;
#X obj 182 543 snapshot~;
#X obj 261 543 metro 50;
#X obj 334 543 tgl 15 0 empty empty empty 17 7 0 10 #fcfcfc #000000
#000000 0 1;
#X floatatom 385 144 5 0 5 1 Hz - - 0;
#X obj 139 411 sig~ 1;
#X obj 40 247 moses 1;
#X obj 114 290 + 0;
#X msg 40 271 bang;
#X obj 4 350 loadbang;
#X obj 276 126 inlet Hz;
#N canvas 52 52 450 250 (subpatch) 0;
#X array \$0-a 400 float 3;
#A 0 1 1 1 1 1 1 1 1 1 1 1 1 1 1 1 1 1 1 1 1 1 1 1 1 1 1 1 1 1 1 1
1 1 1 1 1 1 1 1 1 1 1 1 1 1 1 1 1 1 1 1 1 1 1 1 1 1 1 1 1 1 1 1 1 1
1 1 1 1 1 1 1 1 1 1 1 1 1 1 1 1 1 1 1 1 1 1 1 1 1 1 1 1 1 1 1 1 1 1
1 1 1 1 1 1 1 1 1 1 1 1 1 1 1 1 1 1 1 1 1 1 1 1 1 1 1 1 1 1 1 1 1 1
1 1 1 1 1 1 1 1 1 1 1 1 1 1 1 1 1 1 1 1 1 1 1 1 1 1 1 1 1 1 1 1 1 1
1 1 1 1 1 1 1 1 1 1 1 1 1 1 1 1 1 1 1 1 1 1 1 1 1 1 1 1 1 1 1 1 1 1
1 1 1 1 1 1 1 1 1 1 1 1 1 1 1 1 1 1 1 1 1 1 1 1 1 1 1 1 1 1 1 1 1 1
1 1 1 1 1 1 1 1 1 1 1 1 1 1 1 1 1 1 1 1 1 1 1 1 1 1 1 1 1 1 1 1 1 1
1 1 1 1 1 1 1 1 1 1 1 1 1 1 1 1 1 1 1 1 1 1 1 1 1 1 1 1 1 1 1 1 1 1
1 1 1 1 1 1 1 1 1 1 1 1 1 1 1 1 1 1 1 1 1 1 1 1 1 1 1 1 1 1 1 1 1 1
1 1 1 1 1 1 1 1 1 1 1 1 1 1 1 1 1 1 1 1 1 1 1 1 1 1 1 1 1 1 1 1 1 1
1 1 1 1 1 1 1 1 1 1 1 1 1 1 1 1 1 1 1 1 1 1 1 1 1 1 1 1 1;
#X coords 0 1 400 -1 200 140 1 0 0;
#X restore 407 553 graph;
#X obj 313 438 *~ -1;
#X obj 375 411 Wave/square;
#X obj 461 411 Wave/triangle;
#X obj 261 616 tabwrite~ \$0-a;
#X obj 557 392 r \$0-hz;
#X obj 260 209 r \$0-hz;
#X obj 7 487 inlet note;
#X obj 7 542 +~;
#X obj 56 542 *~;
#X obj 123 660 outlet~ wave;
#X obj 7 511 unpack f f;
#X obj 6 628 snapshot~;
#X obj 58 594 tgl 15 0 empty \$0-wave empty 17 7 0 10 #fcfcfc #000000
#000000 0 1;
#X obj 13 609 metro 10;
#X obj 4 374 s \$0-wave;
#X obj 6 660 outlet mNote;
#X obj 276 160 s \$0-hz;
#X obj 111 120 hradio 15 1 0 5 \$0-lfo-wform-s \$0-lfo-waveform-gui-r
phasor 80 6 0 10 #c6feff #000000 #000000 0;
#X obj 114 193 r \$0-lfo-wform-s;
#N canvas 180 304 612 490 lfo-gui 0;
#X obj 152 247 makefilename %s;
#X msg 152 270 label \$1;
#X obj 152 293 s \$0-lfo-waveform-gui-r;
#X obj 152 53 select 0 1 2 3 4;
#X obj 152 224 symbol \$1;
#X msg 152 130 sine;
#X msg 325 186 square;
#X msg 376 205 triangle;
#X msg 189 149 phasor;
#X msg 240 167 inverPhasor;
#X obj 152 3 r \$0-lfo-parameter;
#X obj 48 111 loadbang;
#X connect 0 0 1 0;
#X connect 1 0 2 0;
#X connect 3 0 5 0;
#X connect 3 1 8 0;
#X connect 3 2 9 0;
#X connect 3 3 6 0;
#X connect 3 4 7 0;
#X connect 4 0 0 0;
#X connect 5 0 4 0;
#X connect 6 0 4 0;
#X connect 7 0 4 0;
#X connect 8 0 4 0;
#X connect 9 0 4 0;
#X connect 10 0 3 0;
#X connect 11 0 5 0;
#X restore 448 127 pd lfo-gui;
#N canvas 632 166 450 300 lfo-wform 0;
#X msg 14 115 1 0 0 0 0 0;
#X msg 28 134 0 1 0 0 0 0;
#X msg 57 153 0 0 1 0 0 0;
#X msg 100 172 0 0 0 1 0 0;
#X msg 159 191 0 0 0 0 1 0;
#X msg 232 210 0 0 0 0 0 1;
#X obj 28 76 select 0 1 2 3 4;
#X obj 53 246 s \$0-lfo-chose;
#X obj 199 96 r \$0-init-wave;
#X obj 28 36 r \$0-lfo-parameter;
#X connect 0 0 7 0;
#X connect 1 0 7 0;
#X connect 2 0 7 0;
#X connect 3 0 7 0;
#X connect 4 0 7 0;
#X connect 5 0 7 0;
#X connect 6 0 1 0;
#X connect 6 1 2 0;
#X connect 6 2 3 0;
#X connect 6 3 4 0;
#X connect 6 4 5 0;
#X connect 8 0 0 0;
#X connect 9 0 6 0;
#X restore 448 154 pd lfo-wform;
#N canvas 367 139 450 300 trash 0;
#X obj 75 75 osc~;
#X obj 125 75 phasor~;
#X obj 184 75 phasor~;
#X obj 20 75 sig~ 1;
#X obj 125 138 s~ inverphasor;
#X obj 184 110 s~ phasor;
#X obj 75 110 s~ osc;
#X obj 125 110 *~ -1;
#X obj 256 75 Wave/square;
#X obj 342 75 Wave/triangle;
#X obj 256 110 s~ square;
#X obj 342 110 s~ triangle;
#X obj 20 110 s~ sig;
#X obj 28 190 vradio 15 1 0 5 empty empty empty 0 -8 0 10 #c6ffc7 #000000
#000000 0;
#X text 50 186 osc;
#X text 50 203 phasor;
#X text 49 232 square;
#X text 49 249 triangle;
#X text 48 218 -phasor;
#X connect 0 0 6 0;
#X connect 1 0 7 0;
#X connect 2 0 5 0;
#X connect 3 0 12 0;
#X connect 7 0 4 0;
#X connect 8 0 10 0;
#X connect 9 0 11 0;
#X restore 449 86 pd trash;
#X obj 3 412 r \$0-lfo-chose;
#X obj 139 463 *~;
#X obj 193 463 *~;
#X obj 313 463 *~;
#X obj 247 463 *~;
#X obj 374 463 *~;
#X obj 462 463 *~;
#X obj 3 444 unpack f f f f f f;
#X obj 124 524 *~ 1;
#X obj 86 369 s \$0-init-wave;
#X obj 86 330 t b;
#X obj 169 309 s \$0-lfo-parameter;
#X obj 114 145 hsl 100 15 0.04 5.3 1 1 empty empty Hz 105 7 0 10 #fcfcfc
#000000 #000000 9900 0;
#X obj 188 228 <= 0.06;
#X connect 0 0 39 0;
#X connect 1 0 15 0;
#X connect 2 0 41 0;
#X connect 4 0 3 0;
#X connect 5 0 4 0;
#X connect 5 0 18 0;
#X connect 6 0 5 0;
#X connect 7 0 31 0;
#X connect 8 0 38 0;
#X connect 9 0 11 0;
#X connect 9 1 47 0;
#X connect 10 0 48 0;
#X connect 11 0 10 0;
#X connect 12 0 29 0;
#X connect 12 0 46 0;
#X connect 13 0 7 0;
#X connect 13 0 49 0;
#X connect 15 0 40 0;
#X connect 16 0 42 0;
#X connect 17 0 43 0;
#X connect 19 0 0 0;
#X connect 19 0 1 0;
#X connect 19 0 2 0;
#X connect 19 0 16 0;
#X connect 19 0 17 0;
#X connect 20 0 50 0;
#X connect 21 0 25 0;
#X connect 22 0 26 0;
#X connect 23 0 22 1;
#X connect 25 0 22 0;
#X connect 25 1 23 1;
#X connect 26 0 30 0;
#X connect 27 0 28 0;
#X connect 28 0 26 0;
#X connect 33 0 10 0;
#X connect 37 0 44 0;
#X connect 38 0 45 0;
#X connect 39 0 45 0;
#X connect 40 0 45 0;
#X connect 41 0 45 0;
#X connect 42 0 45 0;
#X connect 43 0 45 0;
#X connect 44 0 38 1;
#X connect 44 1 39 1;
#X connect 44 2 41 1;
#X connect 44 3 40 1;
#X connect 44 4 42 1;
#X connect 44 5 43 1;
#X connect 45 0 4 0;
#X connect 45 0 18 0;
#X connect 45 0 23 0;
#X connect 45 0 24 0;
#X connect 47 0 46 0;
#X connect 49 0 31 0;
#X connect 50 0 9 0;
#X coords 0 -1 1 1 157 65 1 100 100;
