#N canvas 283 36 911 800 12;
#X text 7 12 Sintetizador normal aditivo;
#X obj 46 335 harmony-4-reverse;
#X obj 56 814 output~;
#X obj 55 753 *~;
#X obj 258 320 hsl 128 15 0.008 0.8 0 0 empty empty empty -2 -8 0 10
#fcfcfc #000000 #000000 0 1;
#X floatatom 46 297 5 0 0 0 - - - 0;
#X obj 112 255 tgl 15 0 empty empty empty 17 7 0 10 #fcfcfc #000000
#000000 0 1;
#X floatatom 677 735 5 0 0 0 r\ num num - 0;
#X obj 677 758 osc~;
#X obj 677 782 *~ 0.25;
#X msg 509 71 open prueba.wav;
#X obj 513 209 writesf~ 2;
#X msg 540 136 start;
#X msg 619 156 stop;
#X obj 734 441 r bangNote;
#X obj 809 401 s bangNote;
#X obj 420 336 harmony-8-reverse;
#X obj 682 59 O-I;
#N canvas 586 128 515 399 test 0;
#X obj 113 134 tgl 15 0 empty empty empty 17 7 0 10 #fcfcfc #000000
#000000 0 1;
#X obj 19 223 f;
#X obj 66 223 + 1;
#X msg 66 204 0;
#X obj 19 246 % 3;
#X obj 19 269 sel 0 1 2;
#X obj 19 149 metro 100;
#X floatatom 201 206 5 0 0 3 BPM - - 0;
#X obj 234 312 /;
#X msg 394 260 2;
#X msg 394 307 4;
#X msg 394 352 8;
#X obj 394 429 bng 15 250 50 0 empty empty empty 17 7 0 10 #fcfcfc
#000000 #000000;
#X floatatom 234 338 5 0 0 3 ms - - 0;
#X obj 146 130 BPM;
#X msg 394 284 3;
#X msg 393 330 5;
#X obj 49 370 outlet;
#X obj 394 148 loadbang;
#X obj 102 370 outlet;
#X obj 156 369 outlet;
#X msg 79 34 300;
#X connect 0 0 6 0;
#X connect 1 0 2 0;
#X connect 1 0 4 0;
#X connect 2 0 1 1;
#X connect 3 0 1 0;
#X connect 4 0 5 0;
#X connect 5 0 17 0;
#X connect 5 1 19 0;
#X connect 5 2 20 0;
#X connect 6 0 1 0;
#X connect 8 0 6 1;
#X connect 8 0 13 0;
#X connect 9 0 8 1;
#X connect 9 0 12 0;
#X connect 10 0 8 1;
#X connect 10 0 12 0;
#X connect 11 0 8 1;
#X connect 11 0 12 0;
#X connect 12 0 8 0;
#X connect 14 0 8 0;
#X connect 14 1 7 0;
#X connect 15 0 8 1;
#X connect 15 0 12 0;
#X connect 16 0 8 1;
#X connect 16 0 12 0;
#X connect 18 0 9 0;
#X connect 18 0 21 0;
#X connect 21 0 6 1;
#X coords 0 -1 1 1 146 139 1 100 100;
#X restore 46 42 pd test;
#X msg 80 202 300;
#X msg 46 202 250;
#X msg 119 202 500;
#X floatatom 559 298 5 0 0 0 - - - 0;
#X obj 54 695 *~;
#X obj 666 421 s num;
#N canvas 433 198 450 300 glissando 0;
#X text 314 106 Glisando;
#X text 66 147 No Glisando;
#X obj 61 112 inlet note;
#X obj 214 47 inlet state;
#X obj 111 168 == 0;
#X obj 272 181 == 1;
#X msg 321 131 \$1 250;
#X obj 321 155 line;
#X obj 182 258 outlet;
#X obj 321 181 spigot;
#X obj 61 168 spigot;
#X obj 176 168 loadbang;
#X msg 146 168 0;
#X connect 2 0 10 0;
#X connect 2 0 6 0;
#X connect 3 0 4 0;
#X connect 3 0 5 0;
#X connect 4 0 10 1;
#X connect 5 0 9 1;
#X connect 6 0 7 0;
#X connect 7 0 9 0;
#X connect 9 0 8 0;
#X connect 10 0 8 0;
#X connect 11 0 12 0;
#X connect 12 0 4 0;
#X restore 46 270 pd glissando;
#X obj 288 129 LFO;
#X obj 722 605 LFO;
#X obj 679 185 cnv 15 150 100 empty empty Controladores 20 12 0 14
#feffc6 #553512 0;
#X obj 695 219 MIDI-Piano;
#X obj 695 251 MIDI-Keyboard;
#N canvas 26 26 450 300 key-O-I 0;
#X obj 203 177 bng 15 250 50 0 empty empty empty 17 7 0 10 #fcfcfc
#000000 #000000;
#X obj 55 35 MIDI-Keyboard;
#X obj 143 148 moses 1, f 9;
#X msg 240 148 2;
#X obj 203 197 print;
#X obj 203 54 sel 0;
#X msg 203 89 1;
#X connect 0 0 4 0;
#X connect 2 1 0 0;
#X connect 2 1 3 0;
#X connect 3 0 2 1;
#X connect 5 0 6 0;
#X connect 6 0 2 1;
#X restore 704 137 pd key-O-I;
#X obj 428 460 DADSR~;
#X obj 522 460 DADSR~;
#X obj 618 460 DADSR~;
#X obj 331 460 DADSR~;
#X obj 240 460 DADSR~;
#X obj 150 460 DADSR~;
#X obj 55 460 DADSR~;
#X obj 809 374 bng 15 250 50 0 empty empty empty 17 7 0 10 #fcfcfc
#000000 #000000;
#X obj 749 345 moses 1, f 9;
#X msg 846 345 2;
#X obj 809 291 sel 0;
#X msg 809 315 1;
#X connect 3 0 2 0;
#X connect 3 0 2 1;
#X connect 4 0 1 1;
#X connect 4 0 16 1;
#X connect 5 0 1 0;
#X connect 5 0 26 0;
#X connect 6 0 25 1;
#X connect 7 0 3 1;
#X connect 7 0 8 0;
#X connect 8 0 9 0;
#X connect 10 0 11 0;
#X connect 12 0 11 0;
#X connect 13 0 11 0;
#X connect 14 0 38 0;
#X connect 14 0 32 0;
#X connect 14 0 33 0;
#X connect 14 0 34 0;
#X connect 14 0 35 0;
#X connect 14 0 36 0;
#X connect 14 0 37 0;
#X connect 16 0 38 1;
#X connect 16 1 37 1;
#X connect 16 2 36 1;
#X connect 16 3 35 1;
#X connect 16 4 32 1;
#X connect 16 5 33 1;
#X connect 16 6 34 1;
#X connect 16 9 24 0;
#X connect 18 0 20 0;
#X connect 18 1 19 0;
#X connect 18 2 21 0;
#X connect 19 0 25 0;
#X connect 20 0 25 0;
#X connect 21 0 25 0;
#X connect 22 0 16 0;
#X connect 23 0 3 0;
#X connect 25 0 5 0;
#X connect 26 0 22 0;
#X connect 27 1 23 1;
#X connect 30 0 25 0;
#X connect 30 1 40 0;
#X connect 30 1 42 0;
#X connect 32 0 3 0;
#X connect 33 0 3 0;
#X connect 34 0 3 0;
#X connect 35 0 3 0;
#X connect 36 0 3 0;
#X connect 37 0 23 0;
#X connect 38 0 23 0;
#X connect 39 0 15 0;
#X connect 40 1 39 0;
#X connect 40 1 41 0;
#X connect 41 0 40 1;
#X connect 42 0 43 0;
#X connect 43 0 40 1;
