#N canvas 26 83 911 767 12;
#X text 7 12 Sintetizador normal aditivo;
#X obj 48 334 harmony-4-reverse;
#X obj 51 814 output~;
#X obj 51 753 *~;
#X obj 258 320 hsl 128 15 0.008 0.8 0 0 empty empty empty -2 -8 0 10
#fcfcfc #000000 #000000 0 1;
#X floatatom 48 297 5 0 0 0 - - - 0;
#N canvas 149 418 450 300 slide 1;
#X text 314 106 Glisando;
#X text 66 147 No Glisando;
#X obj 61 112 inlet note;
#X obj 214 47 inlet state;
#X obj 111 168 == 0;
#X obj 272 181 == 1;
#X msg 321 131 \$1 250;
#X obj 321 155 line;
#X obj 182 258 outlet;
#X obj 321 181 spigot;
#X obj 61 168 spigot;
#X obj 176 168 loadbang;
#X msg 146 168 0;
#X connect 2 0 10 0;
#X connect 2 0 6 0;
#X connect 3 0 4 0;
#X connect 3 0 5 0;
#X connect 4 0 10 1;
#X connect 5 0 9 1;
#X connect 6 0 7 0;
#X connect 7 0 9 0;
#X connect 9 0 8 0;
#X connect 10 0 8 0;
#X connect 11 0 12 0;
#X connect 12 0 4 0;
#X restore 46 270 pd slide;
#X obj 119 255 tgl 15 0 empty empty empty 17 7 0 10 #fcfcfc #000000
#000000 0 1;
#X floatatom 677 735 5 0 0 0 - - - 0;
#X obj 150 460 DADSR-signal;
#X obj 56 460 DADSR-signal;
#X obj 240 460 DADSR-signal;
#X obj 332 460 DADSR-signal;
#X obj 428 460 DADSR-signal;
#X obj 677 758 osc~;
#X obj 677 782 *~ 0.25;
#X msg 509 71 open prueba.wav;
#X obj 513 209 writesf~ 2;
#X msg 540 136 start;
#X msg 619 156 stop;
#X obj 734 441 r bangNote;
#X obj 171 306 s bangNote;
#X obj 172 289 bng 15 250 50 0 empty empty empty 17 7 0 10 #fcfcfc
#000000 #000000;
#X obj 420 341 harmony-8-reverse;
#X obj 522 460 DADSR-signal;
#X obj 618 460 DADSR-signal;
#X obj 682 59 O-I;
#X obj 272 185 LFO;
#X obj 334 758 LFO;
#N canvas 26 26 515 399 test 0;
#X obj 113 134 tgl 15 0 empty empty empty 17 7 0 10 #fcfcfc #000000
#000000 0 1;
#X obj 19 211 f;
#X obj 66 211 + 1;
#X msg 66 192 0;
#X obj 19 234 % 3;
#X obj 19 257 sel 0 1 2;
#X obj 19 137 metro 100;
#X floatatom 201 206 5 0 0 3 BPM - - 0;
#X obj 311 312 /;
#X msg 394 260 2;
#X msg 394 307 4;
#X msg 394 352 8;
#X obj 394 429 bng 15 250 50 0 empty empty empty 17 7 0 10 #fcfcfc
#000000 #000000;
#X floatatom 311 338 5 0 0 3 ms - - 0;
#X obj 146 130 BPM;
#X msg 394 284 3;
#X msg 393 330 5;
#X obj 49 370 outlet;
#X obj 393 148 loadbang;
#X obj 102 370 outlet;
#X obj 156 369 outlet;
#X connect 0 0 6 0;
#X connect 1 0 2 0;
#X connect 1 0 4 0;
#X connect 2 0 1 1;
#X connect 3 0 1 0;
#X connect 4 0 5 0;
#X connect 5 0 17 0;
#X connect 5 1 19 0;
#X connect 5 2 20 0;
#X connect 6 0 1 0;
#X connect 8 0 6 1;
#X connect 8 0 13 0;
#X connect 9 0 8 1;
#X connect 9 0 12 0;
#X connect 10 0 8 1;
#X connect 10 0 12 0;
#X connect 11 0 8 1;
#X connect 11 0 12 0;
#X connect 12 0 8 0;
#X connect 14 0 8 0;
#X connect 14 1 7 0;
#X connect 15 0 8 1;
#X connect 15 0 12 0;
#X connect 16 0 8 1;
#X connect 16 0 12 0;
#X connect 18 0 9 0;
#X coords 0 -1 1 1 146 139 1 100 100;
#X restore 44 57 pd test;
#X msg 77 221 300;
#X msg 43 221 250;
#X msg 116 221 500;
#X floatatom 192 407 5 0 0 0 - - - 0;
#X obj 559 274 snapshot~;
#X obj 713 273 tgl 15 0 empty empty empty 17 7 0 10 #fcfcfc #000000
#000000 0 1;
#X floatatom 314 76 5 0 1000 0 - - - 0;
#X obj 640 273 metro 10;
#X floatatom 559 298 5 0 0 0 - - - 0;
#X obj 261 135 pack f f;
#X obj 341 110 bng 15 250 50 0 empty empty empty 17 7 0 10 #fcfcfc
#000000 #000000;
#X obj 195 779 *~;
#X connect 3 0 2 0;
#X connect 3 0 2 1;
#X connect 4 0 1 1;
#X connect 4 0 23 1;
#X connect 5 0 1 0;
#X connect 5 0 39 0;
#X connect 6 0 5 0;
#X connect 6 0 22 0;
#X connect 7 0 6 1;
#X connect 8 0 3 1;
#X connect 8 0 14 0;
#X connect 9 0 41 0;
#X connect 10 0 41 0;
#X connect 11 0 3 0;
#X connect 12 0 3 0;
#X connect 13 0 3 0;
#X connect 14 0 15 0;
#X connect 16 0 17 0;
#X connect 18 0 17 0;
#X connect 19 0 17 0;
#X connect 20 0 9 0;
#X connect 20 0 12 0;
#X connect 20 0 10 0;
#X connect 20 0 13 0;
#X connect 20 0 11 0;
#X connect 20 0 24 0;
#X connect 20 0 25 0;
#X connect 22 0 21 0;
#X connect 23 0 10 1;
#X connect 23 1 9 1;
#X connect 23 2 11 1;
#X connect 23 3 12 1;
#X connect 23 4 13 1;
#X connect 23 5 24 1;
#X connect 23 6 25 1;
#X connect 23 9 8 0;
#X connect 24 0 3 0;
#X connect 25 0 3 0;
#X connect 27 0 34 0;
#X connect 28 1 41 1;
#X connect 29 0 31 0;
#X connect 29 1 30 0;
#X connect 29 2 32 0;
#X connect 30 0 6 0;
#X connect 31 0 6 0;
#X connect 32 0 6 0;
#X connect 34 0 23 0;
#X connect 34 0 38 0;
#X connect 35 0 37 0;
#X connect 36 0 39 1;
#X connect 36 0 40 0;
#X connect 37 0 34 0;
#X connect 39 0 27 0;
#X connect 40 0 39 0;
#X connect 41 0 3 0;
