#N canvas 144 134 916 748 12;
#X obj 573 176 r-DADSR~;
#X obj 30 180 hradio 15 0 0 10 \$0-harmony \$0-lfo-DADSR-gui-r h1 0
-8 0 10 #fcfcfc #000000 #000000 0;
#X obj 742 176 r-DADSR~;
#X floatatom 28 211 5 0 2000 2 D - -, f 5;
#X floatatom 28 250 5 0 1000 2 A - -, f 5;
#X floatatom 82 250 5 50 1000 2 D - -, f 5;
#X floatatom 28 325 5 100 2000 2 R - -, f 5;
#X obj 29 105 unpack f f f f f;
#X obj 31 289 hsl 125 15 0 1.01 0 0 empty empty S -2 -8 0 10 #fcfcfc
#000000 #000000 6139 1;
#X obj 29 395 pack f f f f f;
#X obj 169 377 t b;
#X obj 260 736 spigot;
#X obj 29 81 receive \$0-main-gui;
#X obj 821 367 spigot;
#X obj 887 367 tgl 15 0 empty empty empty 17 7 0 10 #fcfcfc #000000
#000000 0 1;
#X obj 644 367 spigot;
#X obj 710 367 tgl 15 0 empty empty empty 17 7 0 10 #fcfcfc #000000
#000000 0 1;
#X obj 548 386 s \$0-main-gui;
#X obj 306 721 tgl 15 0 empty empty empty 17 7 0 10 #fcfcfc #000000
#000000 0 1;
#X obj 188 736 spigot;
#X obj 235 721 tgl 15 0 empty empty empty 17 7 0 10 #fcfcfc #000000
#000000 1 1;
#X msg 551 702 0;
#X obj 683 18 r \$0-harmony;
#X obj 549 745 r \$0-none;
#X obj 188 777 s \$0-h0;
#X obj 591 138 r \$0-h0;
#X obj 260 777 s \$0-h1;
#X obj 760 138 r \$0-h1;
#N canvas 163 394 450 300 state 0;
#X obj 170 89 bng 15 250 50 0 empty empty empty 17 7 0 10 #fcfcfc #000000
#000000;
#X obj 225 70 t b b;
#X obj 170 131 delay 1;
#X obj 225 11 inlet bang;
#X obj 170 224 outlet bang;
#X obj 60 224 outlet bang;
#X obj 225 40 delay 1;
#X connect 0 0 2 0;
#X connect 0 0 5 0;
#X connect 1 0 0 0;
#X connect 1 1 4 0;
#X connect 2 0 4 0;
#X connect 3 0 6 0;
#X connect 6 0 1 0;
#X restore 657 157 pd state;
#N canvas 163 394 450 300 state 0;
#X obj 170 89 bng 15 250 50 0 empty empty empty 17 7 0 10 #fcfcfc #000000
#000000;
#X obj 225 70 t b b;
#X obj 170 131 delay 1;
#X obj 225 11 inlet bang;
#X obj 170 224 outlet bang;
#X obj 60 224 outlet bang;
#X obj 225 40 delay 1;
#X connect 0 0 2 0;
#X connect 0 0 5 0;
#X connect 1 0 0 0;
#X connect 1 1 4 0;
#X connect 2 0 4 0;
#X connect 3 0 6 0;
#X connect 6 0 1 0;
#X restore 827 157 pd state;
#X obj 465 736 spigot;
#X obj 511 721 tgl 15 0 empty empty empty 17 7 0 10 #fcfcfc #000000
#000000 0 1;
#X obj 327 736 spigot;
#X obj 373 721 tgl 15 0 empty empty empty 17 7 0 10 #fcfcfc #000000
#000000 0 1;
#X obj 327 777 s \$0-h2;
#X obj 401 736 spigot;
#X obj 447 721 tgl 15 0 empty empty empty 17 7 0 10 #fcfcfc #000000
#000000 0 1;
#X obj 401 777 s \$0-h3;
#X msg 549 783 0;
#X obj 189 818 spigot;
#X obj 236 802 tgl 15 0 empty empty empty 17 7 0 10 #fcfcfc #000000
#000000 0 1;
#X obj 257 818 spigot;
#X obj 303 802 tgl 15 0 empty empty empty 17 7 0 10 #fcfcfc #000000
#000000 0 1;
#X obj 331 818 spigot;
#X obj 377 802 tgl 15 0 empty empty empty 17 7 0 10 #fcfcfc #000000
#000000 0 1;
#X obj 465 777 s \$0-h4;
#X obj 189 858 s \$0-h5;
#X obj 257 858 s \$0-h6;
#X obj 331 858 s \$0-h7;
#X obj 923 176 r-DADSR~;
#X obj 1114 176 r-DADSR~;
#X obj 1193 367 spigot;
#X obj 1259 367 tgl 15 0 empty empty empty 17 7 0 10 #fcfcfc #000000
#000000 0 1;
#X obj 994 367 spigot;
#X obj 1060 367 tgl 15 0 empty empty empty 17 7 0 10 #fcfcfc #000000
#000000 0 1;
#N canvas 163 394 450 300 state 0;
#X obj 170 89 bng 15 250 50 0 empty empty empty 17 7 0 10 #fcfcfc #000000
#000000;
#X obj 225 70 t b b;
#X obj 170 131 delay 1;
#X obj 225 11 inlet bang;
#X obj 170 224 outlet bang;
#X obj 60 224 outlet bang;
#X obj 225 40 delay 1;
#X connect 0 0 2 0;
#X connect 0 0 5 0;
#X connect 1 0 0 0;
#X connect 1 1 4 0;
#X connect 2 0 4 0;
#X connect 3 0 6 0;
#X connect 6 0 1 0;
#X restore 1007 157 pd state;
#N canvas 163 394 450 300 state 0;
#X obj 170 89 bng 15 250 50 0 empty empty empty 17 7 0 10 #fcfcfc #000000
#000000;
#X obj 225 70 t b b;
#X obj 170 131 delay 1;
#X obj 225 11 inlet bang;
#X obj 170 224 outlet bang;
#X obj 60 224 outlet bang;
#X obj 225 40 delay 1;
#X connect 0 0 2 0;
#X connect 0 0 5 0;
#X connect 1 0 0 0;
#X connect 1 1 4 0;
#X connect 2 0 4 0;
#X connect 3 0 6 0;
#X connect 6 0 1 0;
#X restore 1199 157 pd state;
#X obj 941 138 r \$0-h2;
#X obj 1132 138 r \$0-h3;
#X obj 791 471 r-DADSR~;
#X obj 960 471 r-DADSR~;
#X obj 1039 723 spigot;
#X obj 1105 723 tgl 15 0 empty empty empty 17 7 0 10 #fcfcfc #000000
#000000 0 1;
#X obj 862 723 spigot;
#X obj 928 723 tgl 15 0 empty empty empty 17 7 0 10 #fcfcfc #000000
#000000 0 1;
#N canvas 163 394 450 300 state 0;
#X obj 170 89 bng 15 250 50 0 empty empty empty 17 7 0 10 #fcfcfc #000000
#000000;
#X obj 225 70 t b b;
#X obj 170 131 delay 1;
#X obj 225 11 inlet bang;
#X obj 170 224 outlet bang;
#X obj 60 224 outlet bang;
#X obj 225 40 delay 1;
#X connect 0 0 2 0;
#X connect 0 0 5 0;
#X connect 1 0 0 0;
#X connect 1 1 4 0;
#X connect 2 0 4 0;
#X connect 3 0 6 0;
#X connect 6 0 1 0;
#X restore 875 452 pd state;
#N canvas 163 394 450 300 state 0;
#X obj 170 89 bng 15 250 50 0 empty empty empty 17 7 0 10 #fcfcfc #000000
#000000;
#X obj 225 70 t b b;
#X obj 170 131 delay 1;
#X obj 225 11 inlet bang;
#X obj 170 224 outlet bang;
#X obj 60 224 outlet bang;
#X obj 225 40 delay 1;
#X connect 0 0 2 0;
#X connect 0 0 5 0;
#X connect 1 0 0 0;
#X connect 1 1 4 0;
#X connect 2 0 4 0;
#X connect 3 0 6 0;
#X connect 6 0 1 0;
#X restore 1045 452 pd state;
#X obj 1141 471 r-DADSR~;
#X obj 1332 471 r-DADSR~;
#X obj 1411 723 spigot;
#X obj 1477 723 tgl 15 0 empty empty empty 17 7 0 10 #fcfcfc #000000
#000000 0 1;
#X obj 1212 723 spigot;
#X obj 1278 723 tgl 15 0 empty empty empty 17 7 0 10 #fcfcfc #000000
#000000 0 1;
#N canvas 163 394 450 300 state 0;
#X obj 170 89 bng 15 250 50 0 empty empty empty 17 7 0 10 #fcfcfc #000000
#000000;
#X obj 225 70 t b b;
#X obj 170 131 delay 1;
#X obj 225 11 inlet bang;
#X obj 170 224 outlet bang;
#X obj 60 224 outlet bang;
#X obj 225 40 delay 1;
#X connect 0 0 2 0;
#X connect 0 0 5 0;
#X connect 1 0 0 0;
#X connect 1 1 4 0;
#X connect 2 0 4 0;
#X connect 3 0 6 0;
#X connect 6 0 1 0;
#X restore 1225 452 pd state;
#N canvas 163 394 450 300 state 0;
#X obj 170 89 bng 15 250 50 0 empty empty empty 17 7 0 10 #fcfcfc #000000
#000000;
#X obj 225 70 t b b;
#X obj 170 131 delay 1;
#X obj 225 11 inlet bang;
#X obj 170 224 outlet bang;
#X obj 60 224 outlet bang;
#X obj 225 40 delay 1;
#X connect 0 0 2 0;
#X connect 0 0 5 0;
#X connect 1 0 0 0;
#X connect 1 1 4 0;
#X connect 2 0 4 0;
#X connect 3 0 6 0;
#X connect 6 0 1 0;
#X restore 1417 452 pd state;
#X obj 776 742 s \$0-main-gui;
#X obj 809 433 r \$0-h4;
#X obj 978 433 r \$0-h5;
#X obj 1159 433 r \$0-h6;
#X obj 1350 433 r \$0-h7;
#N canvas 491 378 450 300 init 0;
#X obj 163 55 inlet;
#X msg 163 125 1;
#X obj 163 90 delay 10;
#X obj 163 153 outlet;
#X connect 0 0 2 0;
#X connect 1 0 3 0;
#X connect 2 0 1 0;
#X restore 236 83 pd init;
#N canvas 491 378 450 300 init 0;
#X obj 163 55 inlet;
#X msg 163 125 1;
#X obj 163 90 delay 10;
#X obj 163 153 outlet;
#X connect 0 0 2 0;
#X connect 1 0 3 0;
#X connect 2 0 1 0;
#X restore 302 83 pd init;
#N canvas 491 378 450 300 init 0;
#X obj 163 55 inlet;
#X msg 163 125 1;
#X obj 163 90 delay 10;
#X obj 163 153 outlet;
#X connect 0 0 2 0;
#X connect 1 0 3 0;
#X connect 2 0 1 0;
#X restore 369 83 pd init;
#N canvas 491 378 450 300 init 0;
#X obj 163 55 inlet;
#X msg 163 125 1;
#X obj 163 90 delay 10;
#X obj 163 153 outlet;
#X connect 0 0 2 0;
#X connect 1 0 3 0;
#X connect 2 0 1 0;
#X restore 440 83 pd init;
#N canvas 491 378 1280 941 init 0;
#X obj 163 55 inlet;
#X msg 163 125 1;
#X obj 163 90 delay 10;
#X obj 163 153 outlet;
#X connect 0 0 2 0;
#X connect 1 0 3 0;
#X connect 2 0 1 0;
#X restore 511 83 pd init;
#N canvas 491 378 450 300 init 0;
#X obj 163 55 inlet;
#X msg 163 125 1;
#X obj 163 90 delay 10;
#X obj 163 153 outlet;
#X connect 0 0 2 0;
#X connect 1 0 3 0;
#X connect 2 0 1 0;
#X restore 235 119 pd init;
#N canvas 491 378 450 300 init 0;
#X obj 163 55 inlet;
#X msg 163 125 1;
#X obj 163 90 delay 10;
#X obj 163 153 outlet;
#X connect 0 0 2 0;
#X connect 1 0 3 0;
#X connect 2 0 1 0;
#X restore 302 119 pd init;
#N canvas 491 378 450 300 init 0;
#X obj 163 55 inlet;
#X msg 163 125 1;
#X obj 163 90 delay 10;
#X obj 163 153 outlet;
#X connect 0 0 2 0;
#X connect 1 0 3 0;
#X connect 2 0 1 0;
#X restore 369 119 pd init;
#X obj 29 419 s \$0-main;
#X obj 87 717 r \$0-main;
#X obj 239 156 inlet~ h0;
#X obj 308 156 inlet~ h1;
#X obj 377 156 inlet~ h2;
#X obj 446 156 inlet~ h3;
#X obj 532 451 inlet~ h4;
#X obj 601 451 inlet~ h5;
#X obj 670 451 inlet~ h6;
#X obj 739 451 inlet~ h7;
#X obj 229 367 outlet~ h0;
#X obj 305 367 outlet~ h1;
#X obj 381 367 outlet~ h2;
#X obj 457 367 outlet~ h3;
#X obj 1873 92 s banginlet;
#X obj 1324 157 r banginlet;
#X obj 1595 452 r banginlet;
#X obj 1873 63 inlet bang;
#X obj 87 799 r \$0-main;
#X obj 29 551 cnv 15 150 60 empty empty Complements 20 12 0 14 #ffe3c6
#ff8300 0;
#N canvas 556 376 631 464 DADSR-gui 0;
#X obj 152 247 makefilename %s;
#X msg 152 270 label \$1;
#X obj 152 224 symbol \$1;
#X obj 48 111 loadbang;
#X obj 152 293 s \$0-lfo-DADSR-gui-r;
#X msg 152 130 h1;
#X msg 183 130 h2;
#X msg 214 130 h3;
#X msg 244 130 h4;
#X msg 274 130 h5;
#X msg 306 130 h6;
#X msg 336 130 h7;
#X msg 365 130 h8;
#X msg 48 274 0;
#X obj 152 3 r \$0-harmony;
#X msg 400 130 h9;
#X obj 152 53 select 0 1 2 3 4 5 6 7 8;
#X msg 434 130 h10;
#X connect 0 0 1 0;
#X connect 1 0 4 0;
#X connect 2 0 0 0;
#X connect 3 0 5 0;
#X connect 3 0 13 0;
#X connect 5 0 2 0;
#X connect 6 0 2 0;
#X connect 7 0 2 0;
#X connect 8 0 2 0;
#X connect 9 0 2 0;
#X connect 10 0 2 0;
#X connect 11 0 2 0;
#X connect 12 0 2 0;
#X connect 13 0 4 0;
#X connect 14 0 16 0;
#X connect 15 0 2 0;
#X connect 16 0 5 0;
#X connect 16 1 6 0;
#X connect 16 2 7 0;
#X connect 16 3 8 0;
#X connect 16 4 9 0;
#X connect 16 5 10 0;
#X connect 16 6 11 0;
#X connect 16 7 12 0;
#X connect 16 8 15 0;
#X connect 16 9 17 0;
#X connect 17 0 2 0;
#X restore 57 580 pd DADSR-gui;
#X obj 792 815 outlet~ h4;
#X obj 960 815 outlet~ h5;
#X obj 1142 815 outlet~ h6;
#X obj 1333 815 outlet~ h7;
#X obj 1540 806 r-DADSR~;
#X obj 1595 1058 spigot;
#X obj 1677 1058 tgl 15 0 empty empty empty 17 7 0 10 #fcfcfc #000000
#000000 0 1;
#N canvas 163 394 450 300 state 0;
#X obj 170 89 bng 15 250 50 0 empty empty empty 17 7 0 10 #fcfcfc #000000
#000000;
#X obj 225 70 t b b;
#X obj 170 131 delay 1;
#X obj 225 11 inlet bang;
#X obj 170 224 outlet bang;
#X obj 60 224 outlet bang;
#X obj 225 40 delay 1;
#X connect 0 0 2 0;
#X connect 0 0 5 0;
#X connect 1 0 0 0;
#X connect 1 1 4 0;
#X connect 2 0 4 0;
#X connect 3 0 6 0;
#X connect 6 0 1 0;
#X restore 1624 787 pd state;
#X obj 1463 1077 s \$0-main-gui;
#X obj 407 818 spigot;
#X obj 453 802 tgl 15 0 empty empty empty 17 7 0 10 #fcfcfc #000000
#000000 0 1;
#X obj 1453 788 inlet~ h8;
#X obj 1464 998 outlet~ h8;
#X obj 407 858 s \$0-h8;
#N canvas 491 378 450 300 init 0;
#X obj 163 55 inlet;
#X msg 163 125 1;
#X obj 163 90 delay 10;
#X obj 163 153 outlet;
#X connect 0 0 2 0;
#X connect 1 0 3 0;
#X connect 2 0 1 0;
#X restore 440 119 pd init;
#X obj 1558 768 r \$0-h8;
#X obj 467 915 spigot;
#X obj 513 899 tgl 15 0 empty empty empty 17 7 0 10 #fcfcfc #000000
#000000 0 1;
#X obj 467 954 s \$0-h9;
#N canvas 491 378 450 300 init 0;
#X obj 163 55 inlet;
#X msg 163 125 1;
#X obj 163 153 outlet;
#X obj 163 90 delay 10;
#X connect 0 0 3 0;
#X connect 1 0 2 0;
#X connect 3 0 1 0;
#X restore 515 119 pd init;
#X obj 683 64 select 0 1 2 3 4 5 6 7 8;
#X obj 1777 798 r-DADSR~;
#X obj 1832 1058 spigot;
#X obj 1914 1058 tgl 15 0 empty empty empty 17 7 0 10 #fcfcfc #000000
#000000 0 1;
#N canvas 163 394 450 300 state 0;
#X obj 170 89 bng 15 250 50 0 empty empty empty 17 7 0 10 #fcfcfc #000000
#000000;
#X obj 225 70 t b b;
#X obj 170 131 delay 1;
#X obj 225 11 inlet bang;
#X obj 170 224 outlet bang;
#X obj 60 224 outlet bang;
#X obj 225 40 delay 5;
#X connect 0 0 2 0;
#X connect 0 0 5 0;
#X connect 1 0 0 0;
#X connect 1 1 4 0;
#X connect 2 0 4 0;
#X connect 3 0 6 0;
#X connect 6 0 1 0;
#X restore 1861 779 pd state;
#X obj 1701 990 outlet~ h9;
#X obj 1690 780 inlet~ h9;
#X obj 1795 760 r \$0-h9;
#X obj 343 896 r \$0-main;
#X obj 928 37 s \$0-none;
#X obj 887 37 t b;
#N canvas 491 378 450 300 init 0;
#X obj 163 55 inlet;
#X msg 163 125 1;
#X obj 163 153 outlet;
#X obj 163 90 delay 10;
#X connect 0 0 3 0;
#X connect 1 0 2 0;
#X connect 3 0 1 0;
#X restore 563 586 pd init;
#X obj 1770 60 inlet button;
#X obj 1770 140 s \$0-lfo-DADSR-gui-r;
#X obj 1820 620 r \$0-main;
#X obj 1820 670 outlet list;
#X obj 1950 160 inlet pack;
#X obj 1950 189 s \$0-main-gui;
#X connect 0 0 98 0;
#X connect 0 1 15 0;
#X connect 2 0 99 0;
#X connect 2 1 13 0;
#X connect 3 0 9 0;
#X connect 4 0 10 0;
#X connect 4 0 9 1;
#X connect 5 0 10 0;
#X connect 5 0 9 2;
#X connect 6 0 10 0;
#X connect 6 0 9 4;
#X connect 7 0 4 0;
#X connect 7 1 5 0;
#X connect 7 2 8 0;
#X connect 7 3 6 0;
#X connect 7 4 3 0;
#X connect 8 0 10 0;
#X connect 8 0 9 3;
#X connect 9 0 88 0;
#X connect 10 0 9 0;
#X connect 11 0 26 0;
#X connect 12 0 7 0;
#X connect 13 0 17 0;
#X connect 14 0 13 1;
#X connect 15 0 17 0;
#X connect 16 0 15 1;
#X connect 18 0 11 1;
#X connect 19 0 24 0;
#X connect 20 0 19 1;
#X connect 21 0 20 0;
#X connect 21 0 18 0;
#X connect 21 0 33 0;
#X connect 21 0 36 0;
#X connect 21 0 31 0;
#X connect 22 0 129 0;
#X connect 22 0 139 0;
#X connect 23 0 21 0;
#X connect 23 0 38 0;
#X connect 25 0 0 1;
#X connect 27 0 2 1;
#X connect 28 0 0 2;
#X connect 28 1 16 0;
#X connect 29 0 2 2;
#X connect 29 1 14 0;
#X connect 30 0 45 0;
#X connect 31 0 30 1;
#X connect 32 0 34 0;
#X connect 33 0 32 1;
#X connect 35 0 37 0;
#X connect 36 0 35 1;
#X connect 38 0 40 0;
#X connect 38 0 42 0;
#X connect 38 0 44 0;
#X connect 38 0 119 0;
#X connect 38 0 126 0;
#X connect 39 0 46 0;
#X connect 40 0 39 1;
#X connect 41 0 47 0;
#X connect 42 0 41 1;
#X connect 43 0 48 0;
#X connect 44 0 43 1;
#X connect 49 0 100 0;
#X connect 49 1 53 0;
#X connect 50 0 101 0;
#X connect 50 1 51 0;
#X connect 51 0 17 0;
#X connect 52 0 51 1;
#X connect 53 0 17 0;
#X connect 54 0 53 1;
#X connect 55 0 49 2;
#X connect 55 1 54 0;
#X connect 56 0 50 2;
#X connect 56 1 52 0;
#X connect 57 0 49 1;
#X connect 58 0 50 1;
#X connect 59 0 109 0;
#X connect 59 1 63 0;
#X connect 60 0 110 0;
#X connect 60 1 61 0;
#X connect 61 0 75 0;
#X connect 62 0 61 1;
#X connect 63 0 75 0;
#X connect 64 0 63 1;
#X connect 65 0 59 2;
#X connect 65 1 64 0;
#X connect 66 0 60 2;
#X connect 66 1 62 0;
#X connect 67 0 111 0;
#X connect 67 1 71 0;
#X connect 68 0 112 0;
#X connect 68 1 69 0;
#X connect 69 0 75 0;
#X connect 70 0 69 1;
#X connect 71 0 75 0;
#X connect 72 0 71 1;
#X connect 73 0 67 2;
#X connect 73 1 72 0;
#X connect 74 0 68 2;
#X connect 74 1 70 0;
#X connect 76 0 59 1;
#X connect 77 0 60 1;
#X connect 78 0 67 1;
#X connect 79 0 68 1;
#X connect 80 0 20 0;
#X connect 81 0 18 0;
#X connect 82 0 33 0;
#X connect 83 0 36 0;
#X connect 84 0 31 0;
#X connect 85 0 40 0;
#X connect 86 0 42 0;
#X connect 87 0 44 0;
#X connect 89 0 19 0;
#X connect 89 0 11 0;
#X connect 89 0 32 0;
#X connect 89 0 35 0;
#X connect 89 0 30 0;
#X connect 90 0 0 0;
#X connect 91 0 2 0;
#X connect 92 0 49 0;
#X connect 93 0 50 0;
#X connect 94 0 59 0;
#X connect 95 0 60 0;
#X connect 96 0 67 0;
#X connect 97 0 68 0;
#X connect 103 0 0 3;
#X connect 103 0 2 3;
#X connect 103 0 49 3;
#X connect 103 0 50 3;
#X connect 104 0 68 3;
#X connect 104 0 67 3;
#X connect 104 0 60 3;
#X connect 104 0 59 3;
#X connect 104 0 113 3;
#X connect 104 0 130 3;
#X connect 105 0 102 0;
#X connect 106 0 39 0;
#X connect 106 0 41 0;
#X connect 106 0 43 0;
#X connect 106 0 118 0;
#X connect 113 0 121 0;
#X connect 113 1 114 0;
#X connect 114 0 117 0;
#X connect 115 0 114 1;
#X connect 116 0 113 2;
#X connect 116 1 115 0;
#X connect 118 0 122 0;
#X connect 119 0 118 1;
#X connect 120 0 113 0;
#X connect 123 0 119 0;
#X connect 124 0 113 1;
#X connect 125 0 127 0;
#X connect 126 0 125 1;
#X connect 128 0 140 0;
#X connect 129 0 28 0;
#X connect 129 0 80 0;
#X connect 129 1 29 0;
#X connect 129 1 81 0;
#X connect 129 2 55 0;
#X connect 129 2 82 0;
#X connect 129 3 56 0;
#X connect 129 3 83 0;
#X connect 129 4 65 0;
#X connect 129 4 84 0;
#X connect 129 5 66 0;
#X connect 129 5 85 0;
#X connect 129 6 73 0;
#X connect 129 6 86 0;
#X connect 129 7 74 0;
#X connect 129 7 87 0;
#X connect 129 8 116 0;
#X connect 129 8 123 0;
#X connect 129 9 128 0;
#X connect 129 9 133 0;
#X connect 130 0 134 0;
#X connect 130 1 131 0;
#X connect 131 0 117 0;
#X connect 132 0 131 1;
#X connect 133 0 130 2;
#X connect 133 1 132 0;
#X connect 135 0 130 0;
#X connect 136 0 130 1;
#X connect 137 0 125 0;
#X connect 139 0 138 0;
#X connect 140 0 126 0;
#X connect 141 0 142 0;
#X connect 143 0 144 0;
#X connect 145 0 146 0;
#X coords 0 -1 1 1 175 199 1 20 150;
