#N canvas 367 273 450 300 12;
#X obj 94 130 mtof;
#X obj 167 38 notein;
#X obj 188 130 / 127;
#X obj 188 154 outlet volume;
#X obj 94 154 outlet note;
#X obj 303 154 outlet O-I;
#N canvas 261 339 450 300 key-O-I 0;
#X obj 143 43 inlet state;
#X obj 143 142 moses 1, f 9;
#X obj 203 90 sel 0;
#X msg 203 114 1;
#X msg 308 109 0;
#X msg 203 177 1;
#X obj 203 205 outlet on-off;
#X msg 240 142 128;
#X connect 0 0 1 0;
#X connect 0 0 2 0;
#X connect 1 1 7 0;
#X connect 1 1 5 0;
#X connect 2 0 3 0;
#X connect 2 0 4 0;
#X connect 3 0 1 1;
#X connect 4 0 6 0;
#X connect 5 0 6 0;
#X connect 7 0 1 1;
#X restore 303 114 pd key-O-I;
#X connect 0 0 4 0;
#X connect 1 0 0 0;
#X connect 1 1 2 0;
#X connect 1 1 6 0;
#X connect 2 0 3 0;
#X connect 6 0 5 0;
