#N canvas 452 120 450 300 12;
#X obj 105 25 keyname;
#X symbolatom 150 61 10 0 0 0 - - - 0;
#X obj 142 155 mtof;
#N canvas 647 304 605 585 first-octave 0;
#X obj 204 133 route z s x d c;
#X floatatom 12 175 5 0 0 0 - - - 0;
#X floatatom 49 192 5 0 0 0 - - - 0;
#X floatatom 86 211 5 0 0 0 - - - 0;
#X floatatom 123 230 5 0 0 0 - - - 0;
#X floatatom 160 248 5 0 0 0 - - - 0;
#X msg 12 33 48;
#X obj 12 6 loadbang;
#X floatatom 221 348 5 0 0 0 - - - 0;
#X floatatom 258 365 5 0 0 0 - - - 0;
#X floatatom 295 384 5 0 0 0 - - - 0;
#X floatatom 332 403 5 0 0 0 - - - 0;
#X floatatom 369 421 5 0 0 0 - - - 0;
#X floatatom 406 440 5 0 0 0 - - - 0;
#X floatatom 443 458 5 0 0 0 - - - 0;
#X obj 12 494 outlet;
#X obj 204 57 inlet key;
#X obj 229 211 route v g b h n j m, f 22;
#X obj 400 152 expr $f1 + 0 \; $f1 + 1 \; $f1 + 2 \; $f1 + 3 \; $f1
+ 4 \; $f1 + 5 \; $f1 + 6 \;, f 15;
#X obj 462 349 bng 15 250 50 0 empty empty empty 17 7 0 10 #fcfcfc
#000000 #000000;
#X obj 12 63 expr $f1 + 0 \; $f1 + 1 \; $f1 + 2 \; $f1 + 3 \; $f1 +
4 \; $f1 + 5 \;;
#X connect 0 0 1 0;
#X connect 0 1 2 0;
#X connect 0 2 3 0;
#X connect 0 3 4 0;
#X connect 0 4 5 0;
#X connect 0 5 17 0;
#X connect 1 0 15 0;
#X connect 2 0 15 0;
#X connect 3 0 15 0;
#X connect 4 0 15 0;
#X connect 5 0 15 0;
#X connect 6 0 20 0;
#X connect 7 0 6 0;
#X connect 8 0 15 0;
#X connect 9 0 15 0;
#X connect 10 0 15 0;
#X connect 11 0 15 0;
#X connect 12 0 15 0;
#X connect 13 0 15 0;
#X connect 14 0 15 0;
#X connect 16 0 0 0;
#X connect 17 0 8 0;
#X connect 17 1 9 0;
#X connect 17 2 10 0;
#X connect 17 3 11 0;
#X connect 17 4 12 0;
#X connect 17 5 13 0;
#X connect 17 6 14 0;
#X connect 17 7 19 0;
#X connect 18 0 8 0;
#X connect 18 1 9 0;
#X connect 18 2 10 0;
#X connect 18 3 11 0;
#X connect 18 4 12 0;
#X connect 18 5 13 0;
#X connect 18 6 14 0;
#X connect 20 0 1 0;
#X connect 20 1 2 0;
#X connect 20 2 3 0;
#X connect 20 3 4 0;
#X connect 20 4 5 0;
#X connect 20 5 18 0;
#X restore 21 136 pd first-octave;
#N canvas 322 46 605 581 second-octave 1;
#X floatatom 12 182 5 0 0 0 - - - 0;
#X floatatom 49 199 5 0 0 0 - - - 0;
#X floatatom 86 218 5 0 0 0 - - - 0;
#X floatatom 123 237 5 0 0 0 - - - 0;
#X floatatom 160 255 5 0 0 0 - - - 0;
#X obj 12 6 loadbang;
#X floatatom 221 348 5 0 0 0 - - - 0;
#X floatatom 258 365 5 0 0 0 - - - 0;
#X floatatom 295 384 5 0 0 0 - - - 0;
#X floatatom 332 403 5 0 0 0 - - - 0;
#X floatatom 369 421 5 0 0 0 - - - 0;
#X floatatom 406 440 5 0 0 0 - - - 0;
#X floatatom 443 458 5 0 0 0 - - - 0;
#X obj 12 494 outlet;
#X obj 204 57 inlet key;
#X obj 204 133 route q 2 w 3 e;
#X obj 399 152 expr $f1 + 0 \; $f1 + 1 \; $f1 + 2 \; $f1 + 3 \; $f1
+ 4 \; $f1 + 5 \; $f1 + 6 \;, f 15;
#X obj 230 210 route r t 6 y 7 u p;
#X obj 470 343 bng 15 250 50 0 empty empty empty 17 7 0 10 #fcfcfc
#000000 #000000;
#X obj 12 63 expr $f1 + 0 \; $f1 + 1 \; $f1 + 2 \; $f1 + 3 \; $f1 +
4 \; $f1 + 5 \;;
#X msg 12 33 60;
#X connect 0 0 13 0;
#X connect 1 0 13 0;
#X connect 2 0 13 0;
#X connect 3 0 13 0;
#X connect 4 0 13 0;
#X connect 5 0 20 0;
#X connect 6 0 13 0;
#X connect 7 0 13 0;
#X connect 8 0 13 0;
#X connect 9 0 13 0;
#X connect 10 0 13 0;
#X connect 11 0 13 0;
#X connect 12 0 13 0;
#X connect 14 0 15 0;
#X connect 15 0 0 0;
#X connect 15 1 1 0;
#X connect 15 2 2 0;
#X connect 15 3 3 0;
#X connect 15 4 4 0;
#X connect 15 5 17 0;
#X connect 16 0 6 0;
#X connect 16 1 7 0;
#X connect 16 2 8 0;
#X connect 16 3 9 0;
#X connect 16 4 10 0;
#X connect 16 5 11 0;
#X connect 16 6 12 0;
#X connect 17 0 6 0;
#X connect 17 1 7 0;
#X connect 17 2 8 0;
#X connect 17 3 9 0;
#X connect 17 4 10 0;
#X connect 17 5 11 0;
#X connect 17 6 12 0;
#X connect 17 7 18 0;
#X connect 19 0 0 0;
#X connect 19 1 1 0;
#X connect 19 2 2 0;
#X connect 19 3 3 0;
#X connect 19 3 4 0;
#X connect 19 4 16 0;
#X connect 20 0 19 0;
#X restore 242 136 pd second-octave;
#X obj 142 211 outlet note;
#X msg 150 117 \$1;
#X connect 0 1 1 0;
#X connect 1 0 6 0;
#X connect 2 0 5 0;
#X connect 3 0 2 0;
#X connect 4 0 2 0;
#X connect 6 0 4 0;
#X connect 6 0 3 0;
