#N canvas 426 295 450 300 12;
#X obj 105 25 keyname;
#X symbolatom 151 118 10 0 0 0 - - - 0;
#X obj 142 155 mtof;
#N canvas 611 395 605 585 first-octave 0;
#X msg 204 95 \$1;
#X obj 204 141 route z s x d c;
#X obj 12 63 expr $f1 + 0 \; $f1 + 1 \; $f1 + 2 \; $f1 + 3 \; $f1 +
4 \;;
#X floatatom 12 150 5 0 0 0 - - - 0;
#X floatatom 49 167 5 0 0 0 - - - 0;
#X floatatom 86 186 5 0 0 0 - - - 0;
#X floatatom 123 205 5 0 0 0 - - - 0;
#X floatatom 160 223 5 0 0 0 - - - 0;
#X msg 12 33 48;
#X obj 12 6 loadbang;
#X floatatom 221 348 5 0 0 0 - - - 0;
#X floatatom 258 365 5 0 0 0 - - - 0;
#X floatatom 295 384 5 0 0 0 - - - 0;
#X floatatom 332 403 5 0 0 0 - - - 0;
#X floatatom 369 421 5 0 0 0 - - - 0;
#X floatatom 406 440 5 0 0 0 - - - 0;
#X floatatom 443 458 5 0 0 0 - - - 0;
#X obj 12 494 outlet;
#X obj 204 57 inlet key;
#X obj 229 211 route v g b h n j m, f 22;
#X obj 399 136 expr $f1 + 0 \; $f1 + 1 \; $f1 + 2 \; $f1 + 3 \; $f1
+ 4 \; $f1 + 5 \; $f1 + 6 \;, f 15;
#X connect 0 0 1 0;
#X connect 1 0 3 0;
#X connect 1 1 4 0;
#X connect 1 2 5 0;
#X connect 1 3 6 0;
#X connect 1 4 7 0;
#X connect 1 5 19 0;
#X connect 2 0 3 0;
#X connect 2 1 4 0;
#X connect 2 2 5 0;
#X connect 2 3 6 0;
#X connect 2 3 7 0;
#X connect 2 4 20 0;
#X connect 3 0 17 0;
#X connect 4 0 17 0;
#X connect 5 0 17 0;
#X connect 6 0 17 0;
#X connect 7 0 17 0;
#X connect 8 0 2 0;
#X connect 9 0 8 0;
#X connect 10 0 17 0;
#X connect 11 0 17 0;
#X connect 12 0 17 0;
#X connect 13 0 17 0;
#X connect 14 0 17 0;
#X connect 15 0 17 0;
#X connect 16 0 17 0;
#X connect 18 0 0 0;
#X connect 19 0 10 0;
#X connect 19 1 11 0;
#X connect 19 2 12 0;
#X connect 19 3 13 0;
#X connect 19 4 14 0;
#X connect 19 5 15 0;
#X connect 19 6 16 0;
#X connect 20 0 10 0;
#X connect 20 1 11 0;
#X connect 20 2 12 0;
#X connect 20 3 13 0;
#X connect 20 4 14 0;
#X connect 20 5 15 0;
#X connect 20 6 16 0;
#X restore 21 136 pd first-octave;
#N canvas 439 123 605 581 second-octave 0;
#X msg 204 95 \$1;
#X obj 12 63 expr $f1 + 0 \; $f1 + 1 \; $f1 + 2 \; $f1 + 3 \; $f1 +
4 \;;
#X floatatom 12 150 5 0 0 0 - - - 0;
#X floatatom 49 167 5 0 0 0 - - - 0;
#X floatatom 86 186 5 0 0 0 - - - 0;
#X floatatom 123 205 5 0 0 0 - - - 0;
#X floatatom 160 223 5 0 0 0 - - - 0;
#X obj 12 6 loadbang;
#X floatatom 221 348 5 0 0 0 - - - 0;
#X floatatom 258 365 5 0 0 0 - - - 0;
#X floatatom 295 384 5 0 0 0 - - - 0;
#X floatatom 332 403 5 0 0 0 - - - 0;
#X floatatom 369 421 5 0 0 0 - - - 0;
#X floatatom 406 440 5 0 0 0 - - - 0;
#X floatatom 443 458 5 0 0 0 - - - 0;
#X obj 12 494 outlet;
#X obj 204 57 inlet key;
#X obj 204 141 route q 2 w 3 e;
#X obj 230 210 route r t 6 y 7 u;
#X obj 399 136 expr $f1 + 0 \; $f1 + 1 \; $f1 + 2 \; $f1 + 3 \; $f1
+ 4 \; $f1 + 5 \; $f1 + 6 \;, f 15;
#X msg 12 33 59;
#X connect 0 0 17 0;
#X connect 1 0 2 0;
#X connect 1 1 3 0;
#X connect 1 2 4 0;
#X connect 1 3 5 0;
#X connect 1 3 6 0;
#X connect 1 4 19 0;
#X connect 2 0 15 0;
#X connect 3 0 15 0;
#X connect 4 0 15 0;
#X connect 5 0 15 0;
#X connect 6 0 15 0;
#X connect 7 0 20 0;
#X connect 8 0 15 0;
#X connect 9 0 15 0;
#X connect 10 0 15 0;
#X connect 11 0 15 0;
#X connect 12 0 15 0;
#X connect 13 0 15 0;
#X connect 14 0 15 0;
#X connect 16 0 0 0;
#X connect 17 0 2 0;
#X connect 17 1 3 0;
#X connect 17 2 4 0;
#X connect 17 3 5 0;
#X connect 17 4 6 0;
#X connect 17 5 18 0;
#X connect 18 0 8 0;
#X connect 18 1 9 0;
#X connect 18 2 10 0;
#X connect 18 3 11 0;
#X connect 18 4 12 0;
#X connect 18 5 13 0;
#X connect 18 6 14 0;
#X connect 19 0 8 0;
#X connect 19 1 9 0;
#X connect 19 2 10 0;
#X connect 19 3 11 0;
#X connect 19 4 12 0;
#X connect 19 5 13 0;
#X connect 19 6 14 0;
#X connect 20 0 1 0;
#X restore 242 136 pd second-octave;
#X obj 142 211 outlet note;
#X connect 0 1 1 0;
#X connect 1 0 3 0;
#X connect 1 0 4 0;
#X connect 2 0 5 0;
#X connect 3 0 2 0;
#X connect 4 0 2 0;
