#N canvas 477 141 613 533 10;
#X obj 30 200 OSCroute /Slider;
#X obj 30 250 OSCroute /Harmony;
#X obj 30 279 OSCroute /1 /2 /3 /4 /5 /6 /7 /8 /9 /10, f 22;
#X obj 29 352 pack f f f f f f f f f f, f 13;
#X obj 169 332 t b;
#X obj 29 412 outlet SHarmonies;
#X obj 189 282 OSCroute /Volumen;
#X obj 189 412 outlet Volumen;
#X obj 290 -40 OSCroute /Key;
#X floatatom 360 50 5 0 0 0 - - -, f 5;
#X obj 310 0 unpack f f;
#X obj 350 170 outlet key;
#X obj 360 80 outlet state;
#X floatatom 310 30 5 0 0 0 - - -, f 5;
#X obj 350 110 oscKeyMIDI;
#X obj 110 -30 OSCroute /Button;
#X obj 110 60 hradio 16 0 0 10 empty empty empty 0 -8 0 10 #fcfcfc
#000000 #000000 0;
#X obj 240 110 outlet buttonsel;
#X obj 440 260 OSCroute /Set;
#X obj 440 285 OSCroute /DADSR;
#X obj 430 410 outlet DADSR;
#X obj 30 -80 dumpOSC 12121;
#X obj 320 280 OSCroute /Delay;
#X obj 450 320 unpack f f f f;
#X floatatom 330 310 5 0 0 0 - - -, f 5;
#X obj 430 360 pack f f f f f;
#X obj 330 350 t b;
#X obj 360 330 * 1000;
#X connect 0 0 1 0;
#X connect 0 0 6 0;
#X connect 0 0 22 0;
#X connect 1 0 2 0;
#X connect 2 0 3 0;
#X connect 2 1 3 1;
#X connect 2 1 4 0;
#X connect 2 2 3 2;
#X connect 2 2 4 0;
#X connect 2 3 3 3;
#X connect 2 3 4 0;
#X connect 2 4 3 4;
#X connect 2 4 4 0;
#X connect 2 5 3 5;
#X connect 2 5 4 0;
#X connect 2 6 3 6;
#X connect 2 6 4 0;
#X connect 2 7 3 7;
#X connect 2 7 4 0;
#X connect 2 8 3 8;
#X connect 2 8 4 0;
#X connect 2 9 3 9;
#X connect 2 9 4 0;
#X connect 3 0 5 0;
#X connect 4 0 3 0;
#X connect 6 0 7 0;
#X connect 8 0 10 0;
#X connect 9 0 12 0;
#X connect 10 0 13 0;
#X connect 10 1 9 0;
#X connect 13 0 14 0;
#X connect 14 0 11 0;
#X connect 15 0 16 0;
#X connect 16 0 17 0;
#X connect 18 0 19 0;
#X connect 19 0 23 0;
#X connect 21 0 0 0;
#X connect 21 0 8 0;
#X connect 21 0 15 0;
#X connect 21 0 18 0;
#X connect 22 0 24 0;
#X connect 23 0 25 0;
#X connect 23 1 25 1;
#X connect 23 2 25 2;
#X connect 23 3 25 3;
#X connect 24 0 27 0;
#X connect 25 0 20 0;
#X connect 26 0 25 0;
#X connect 27 0 25 4;
#X connect 27 0 26 0;
