#N canvas 76 348 593 589 10;
#X obj 72 250 outlet note;
#N canvas 23 364 687 613 second-octave 1;
#X floatatom 12 182 5 0 0 0 - - -, f 5;
#X floatatom 49 199 5 0 0 0 - - -, f 5;
#X floatatom 86 218 5 0 0 0 - - -, f 5;
#X floatatom 123 237 5 0 0 0 - - -, f 5;
#X floatatom 161 255 5 0 0 0 - - -, f 5;
#X obj 12 6 loadbang;
#X floatatom 221 348 5 0 0 0 - - -, f 5;
#X floatatom 258 365 5 0 0 0 - - -, f 5;
#X floatatom 295 384 5 0 0 0 - - -, f 5;
#X floatatom 332 403 5 0 0 0 - - -, f 5;
#X floatatom 369 421 5 0 0 0 - - -, f 5;
#X floatatom 406 440 5 0 0 0 - - -, f 5;
#X floatatom 443 458 5 0 0 0 - - -, f 5;
#X obj 12 494 outlet;
#X obj 190 20 inlet key;
#X obj 520 170 expr $f1 + 0 \; $f1 + 1 \; $f1 + 2 \; $f1 + 3 \; $f1
+ 4 \; $f1 + 5 \; $f1 + 6 \;, f 16;
#X msg 12 33 60;
#X floatatom 493 476 5 0 0 0 - - -, f 5;
#X obj 493 447 + 1;
#X obj 12 54 expr $f1 + 0 \; $f1 + 1 \; $f1 + 2 \; $f1 + 3 \; $f1 +
4 \; $f1 + 5 \; $f1 + 6;
#X obj 190 160 sel 113 50 119 51 101;
#X obj 260 240 sel 114 53 116 54 121 55 117 105;
#X connect 0 0 13 0;
#X connect 1 0 13 0;
#X connect 2 0 13 0;
#X connect 3 0 13 0;
#X connect 4 0 13 0;
#X connect 5 0 16 0;
#X connect 6 0 13 0;
#X connect 7 0 13 0;
#X connect 8 0 13 0;
#X connect 9 0 13 0;
#X connect 10 0 13 0;
#X connect 11 0 13 0;
#X connect 12 0 13 0;
#X connect 14 0 20 0;
#X connect 15 0 6 0;
#X connect 15 1 7 0;
#X connect 15 2 8 0;
#X connect 15 3 9 0;
#X connect 15 4 10 0;
#X connect 15 5 11 0;
#X connect 15 6 12 0;
#X connect 15 6 18 0;
#X connect 16 0 19 0;
#X connect 17 0 13 0;
#X connect 18 0 17 0;
#X connect 19 0 0 0;
#X connect 19 1 1 0;
#X connect 19 2 2 0;
#X connect 19 3 3 0;
#X connect 19 4 4 0;
#X connect 19 5 15 0;
#X connect 20 0 0 0;
#X connect 20 1 1 0;
#X connect 20 2 2 0;
#X connect 20 3 3 0;
#X connect 20 4 4 0;
#X connect 20 5 21 0;
#X connect 21 0 6 0;
#X connect 21 1 7 0;
#X connect 21 2 8 0;
#X connect 21 3 9 0;
#X connect 21 4 10 0;
#X connect 21 5 11 0;
#X connect 21 6 12 0;
#X connect 21 7 17 0;
#X restore 522 160 pd second-octave;
#X floatatom 10 -58 5 0 0 0 - - -, f 5;
#X floatatom 47 -41 5 0 0 0 - - -, f 5;
#X floatatom 84 -22 5 0 0 0 - - -, f 5;
#X floatatom 121 -3 5 0 0 0 - - -, f 5;
#X floatatom 158 15 5 0 0 0 - - -, f 5;
#X msg 10 -200 48;
#X floatatom 212 30 5 0 0 0 - - -, f 5;
#X floatatom 249 47 5 0 0 0 - - -, f 5;
#X floatatom 286 66 5 0 0 0 - - -, f 5;
#X floatatom 323 85 5 0 0 0 - - -, f 5;
#X floatatom 360 103 5 0 0 0 - - -, f 5;
#X floatatom 397 122 5 0 0 0 - - -, f 5;
#X floatatom 434 140 5 0 0 0 - - -, f 5;
#X obj 502 -110 expr $f1 + 0 \; $f1 + 1 \; $f1 + 2 \; $f1 + 3 \; $f1
+ 4 \; $f1 + 5 \; $f1 + 6 \;, f 15;
#X obj 10 -170 expr $f1 + 0 \; $f1 + 1 \; $f1 + 2 \; $f1 + 3 \; $f1
+ 4 \; $f1 + 5 \;;
#X obj 142 -250 inlet float;
#X obj 12 -250 loadbang;
#X obj 142 -170 sel 122 115 120 100 99;
#X obj 72 190 mtof;
#X floatatom 72 215 5 0 0 0 - - -, f 5;
#X obj 302 -110 sel 118 103 98 104 110 106 109;
#X connect 1 0 20 0;
#X connect 2 0 20 0;
#X connect 3 0 20 0;
#X connect 4 0 20 0;
#X connect 5 0 20 0;
#X connect 6 0 20 0;
#X connect 7 0 16 0;
#X connect 8 0 20 0;
#X connect 9 0 20 0;
#X connect 10 0 20 0;
#X connect 11 0 20 0;
#X connect 12 0 20 0;
#X connect 13 0 20 0;
#X connect 14 0 20 0;
#X connect 15 0 8 0;
#X connect 15 1 9 0;
#X connect 15 2 10 0;
#X connect 15 3 11 0;
#X connect 15 4 12 0;
#X connect 15 5 13 0;
#X connect 15 6 14 0;
#X connect 16 0 2 0;
#X connect 16 1 3 0;
#X connect 16 2 4 0;
#X connect 16 3 5 0;
#X connect 16 4 6 0;
#X connect 16 5 15 0;
#X connect 17 0 19 0;
#X connect 18 0 7 0;
#X connect 19 0 2 0;
#X connect 19 1 3 0;
#X connect 19 2 4 0;
#X connect 19 3 5 0;
#X connect 19 4 6 0;
#X connect 19 5 22 0;
#X connect 20 0 21 0;
#X connect 21 0 0 0;
#X connect 22 0 8 0;
#X connect 22 1 9 0;
#X connect 22 2 10 0;
#X connect 22 3 11 0;
#X connect 22 4 12 0;
#X connect 22 5 13 0;
#X connect 22 6 14 0;
#X connect 22 7 1 0;
