#N canvas 42 338 802 525 12;
#X obj 278 353 vline~;
#X obj 278 442 snapshot~;
#X floatatom 278 463 5 0 0 0 - - - 0;
#X obj 400 423 metro 1;
#X obj 400 400 tgl 15 0 empty empty empty 17 7 0 10 #fcfcfc #000000
#000000 0 1;
#X floatatom 318 79 5 0 0 0 - - - 0;
#X floatatom 355 79 5 0 0 0 - - - 0;
#X floatatom 392 79 5 0 0 0 - - - 0;
#X obj 107 4 loadbang;
#X obj 18 216 t b;
#X obj 18 361 s \$0-ADR;
#X obj 475 4 r \$0-ADR;
#X msg 475 28 \$1 \$2 \$3 \$4;
#X obj 318 47 unpack f f f f;
#X floatatom 429 79 5 0 0 0 - - - 0;
#X obj 370 119 expr $f1+$f2;
#X obj 252 150 delay;
#X floatatom 107 132 5 0 2000 2 D - - 0;
#X floatatom 107 165 5 0 1000 2 A - - 0;
#X floatatom 107 198 5 50 1000 2 D - - 0;
#X floatatom 107 231 5 0 1 2 S - - 0;
#X floatatom 107 264 5 100 2000 2 R - - 0;
#X obj 124 476 outlet~ note;
#X obj 123 347 inlet~ note;
#X obj 123 371 *~;
#X obj 252 125 r \$0-turnOn;
#X msg 278 266 0.9 \$2 \, 0.5 \$3 \$4 \, \$5 20 \$6;
#X obj 458 138 expr $f1+100;
#X obj 650 250 r \$0-turnOff;
#X obj 278 221 pack f f f f f f;
#X obj 499 269 pack f f;
#X msg 499 334 0 \$2 \$2;
#X obj 595 4 cnv 15 200 160 empty empty Bangs 20 12 0 14 #ff8300 #ffffff
0;
#X obj 612 38 inlet bang;
#X obj 612 134 s \$0-turnOn;
#X obj 697 134 s \$0-turnOff;
#X obj 107 62 unpack f f f f f;
#X msg 107 29 0 50 800 0.5 500;
#X obj 235 7 inlet pack;
#X obj 612 104 bng 15 250 50 0 empty empty empty 17 7 0 10 #fcfcfc
#000000 #000000;
#X obj 696 104 bng 15 250 50 0 empty empty empty 17 7 0 10 #fcfcfc
#000000 #000000;
#X obj 612 73 select 1 0;
#X obj 519 431 r \$0-ADR;
#X obj 519 491 outlet pack;
#X obj 18 332 pack f f f f f;
#X obj 320 6 inlet activate;
#X connect 0 0 1 0;
#X connect 0 0 24 1;
#X connect 1 0 2 0;
#X connect 3 0 1 0;
#X connect 4 0 3 0;
#X connect 5 0 15 0;
#X connect 5 0 29 1;
#X connect 6 0 15 1;
#X connect 6 0 29 2;
#X connect 7 0 29 4;
#X connect 8 0 37 0;
#X connect 9 0 44 0;
#X connect 11 0 12 0;
#X connect 12 0 13 0;
#X connect 13 0 5 0;
#X connect 13 1 6 0;
#X connect 13 2 7 0;
#X connect 13 3 14 0;
#X connect 14 0 30 1;
#X connect 15 0 27 0;
#X connect 15 0 29 3;
#X connect 16 0 29 0;
#X connect 17 0 16 1;
#X connect 17 0 44 4;
#X connect 17 0 9 0;
#X connect 18 0 44 0;
#X connect 19 0 9 0;
#X connect 19 0 44 1;
#X connect 20 0 9 0;
#X connect 20 0 44 2;
#X connect 21 0 9 0;
#X connect 21 0 44 3;
#X connect 23 0 24 0;
#X connect 24 0 22 0;
#X connect 25 0 16 0;
#X connect 26 0 0 0;
#X connect 27 0 29 5;
#X connect 28 0 30 0;
#X connect 29 0 26 0;
#X connect 30 0 31 0;
#X connect 31 0 0 0;
#X connect 33 0 41 0;
#X connect 36 0 17 0;
#X connect 36 1 18 0;
#X connect 36 2 19 0;
#X connect 36 3 20 0;
#X connect 36 4 21 0;
#X connect 37 0 13 0;
#X connect 37 0 36 0;
#X connect 38 0 36 0;
#X connect 39 0 34 0;
#X connect 40 0 35 0;
#X connect 41 0 39 0;
#X connect 41 1 40 0;
#X connect 42 0 43 0;
#X connect 44 0 10 0;
#X connect 45 0 9 0;
#X coords 0 -1 1 1 62 191 1 100 100;
