#N canvas 446 187 450 300 12;
#X obj 97 172 revicion-DADSR~;
#X obj 34 17 MIDI-Keyboard;
#X obj 148 140 bng 15 250 50 0 empty empty empty 17 7 0 10 #fcfcfc
#000000 #000000;
#X obj 88 111 moses 1, f 9;
#X msg 185 111 2;
#X obj 148 57 sel 0;
#X msg 148 81 1;
#X obj 243 76 bng 15 250 50 0 empty empty empty 17 7 0 10 #fcfcfc #000000
#000000;
#X connect 1 1 3 0;
#X connect 1 1 5 0;
#X connect 2 0 0 1;
#X connect 3 1 2 0;
#X connect 3 1 4 0;
#X connect 4 0 3 1;
#X connect 5 0 6 0;
#X connect 5 0 7 0;
#X connect 6 0 3 1;
#X connect 7 0 0 2;
