#N canvas 423 107 673 802 12;
#X obj 20 10 MIDI-Keyboard;
#X obj 20 49 glissando;
#X obj 413 160 r bangNote;
#X obj 458 93 s bangNote;
#X obj 170 20 hsl 128 15 0.008 0.8 0 0 empty empty empty -2 -8 0 10
#fcfcfc #000000 #000000 0 1;
#X floatatom 354 437 5 0 0 0 r\ num num -, f 5;
#X obj 400 300 s num;
#X obj 172 516 output~;
#X obj 171 455 *~;
#X obj 570 180 O-I;
#N canvas 143 221 1280 941 allone 0;
#X obj 573 176 r-DADSR~;
#X obj 38 162 hradio 15 1 0 8 \$0-harmony empty empty 0 -8 0 10 #fcfcfc
#000000 #000000 0;
#X obj 742 176 r-DADSR~;
#X floatatom 36 206 5 0 2000 2 D - -, f 5;
#X floatatom 36 245 5 0 1000 2 A - -, f 5;
#X floatatom 90 245 5 50 1000 2 D - -, f 5;
#X floatatom 36 320 5 100 2000 2 R - -, f 5;
#X obj 35 105 unpack f f f f f;
#X obj 39 284 hsl 100 15 0 1.01 0 0 empty empty S -2 -8 0 10 #fcfcfc
#000000 #000000 0 1;
#X obj 35 395 pack f f f f f;
#X obj 175 377 t b;
#X obj 305 736 spigot;
#X obj 35 81 receive \$0-main-gui;
#X obj 821 367 spigot;
#X obj 887 367 tgl 15 0 empty empty empty 17 7 0 10 #fcfcfc #000000
#000000 0 1;
#X obj 644 367 spigot;
#X obj 710 367 tgl 15 0 empty empty empty 17 7 0 10 #fcfcfc #000000
#000000 0 1;
#X obj 548 386 s \$0-main-gui;
#X obj 351 721 tgl 15 0 empty empty empty 17 7 0 10 #fcfcfc #000000
#000000 0 1;
#X obj 233 736 spigot;
#X obj 280 721 tgl 15 0 empty empty empty 17 7 0 10 #fcfcfc #000000
#000000 0 1;
#X msg 553 702 0;
#X obj 684 18 r \$0-harmony;
#X obj 551 745 r \$0-none;
#X obj 1014 68 s \$0-none;
#X obj 233 777 s \$0-h0;
#X obj 591 138 r \$0-h0;
#X obj 305 777 s \$0-h1;
#X obj 760 138 r \$0-h1;
#N canvas 163 394 450 300 state 0;
#X obj 170 89 bng 15 250 50 0 empty empty empty 17 7 0 10 #fcfcfc #000000
#000000;
#X obj 225 70 t b b;
#X obj 170 131 delay 1;
#X obj 225 11 inlet bang;
#X obj 170 224 outlet bang;
#X obj 60 224 outlet bang;
#X obj 225 40 delay 1;
#X connect 0 0 2 0;
#X connect 0 0 5 0;
#X connect 1 0 0 0;
#X connect 1 1 4 0;
#X connect 2 0 4 0;
#X connect 3 0 6 0;
#X connect 6 0 1 0;
#X restore 657 157 pd state;
#N canvas 163 394 450 300 state 0;
#X obj 170 89 bng 15 250 50 0 empty empty empty 17 7 0 10 #fcfcfc #000000
#000000;
#X obj 225 70 t b b;
#X obj 170 131 delay 1;
#X obj 225 11 inlet bang;
#X obj 170 224 outlet bang;
#X obj 60 224 outlet bang;
#X obj 225 40 delay 1;
#X connect 0 0 2 0;
#X connect 0 0 5 0;
#X connect 1 0 0 0;
#X connect 1 1 4 0;
#X connect 2 0 4 0;
#X connect 3 0 6 0;
#X connect 6 0 1 0;
#X restore 827 157 pd state;
#X obj 232 817 spigot;
#X obj 279 802 tgl 15 0 empty empty empty 17 7 0 10 #fcfcfc #000000
#000000 0 1;
#X obj 372 736 spigot;
#X obj 419 721 tgl 15 0 empty empty empty 17 7 0 10 #fcfcfc #000000
#000000 0 1;
#X obj 372 777 s \$0-h2;
#X obj 446 736 spigot;
#X obj 492 721 tgl 15 0 empty empty empty 17 7 0 10 #fcfcfc #000000
#000000 0 1;
#X obj 446 777 s \$0-h3;
#X msg 551 781 0;
#X obj 304 817 spigot;
#X obj 351 802 tgl 15 0 empty empty empty 17 7 0 10 #fcfcfc #000000
#000000 0 1;
#X obj 371 817 spigot;
#X obj 417 802 tgl 15 0 empty empty empty 17 7 0 10 #fcfcfc #000000
#000000 0 1;
#X obj 445 817 spigot;
#X obj 491 802 tgl 15 0 empty empty empty 17 7 0 10 #fcfcfc #000000
#000000 0 1;
#X obj 232 858 s \$0-h4;
#X obj 304 858 s \$0-h5;
#X obj 371 858 s \$0-h6;
#X obj 445 858 s \$0-h7;
#X obj 923 176 r-DADSR~;
#X obj 1114 176 r-DADSR~;
#X obj 1193 367 spigot;
#X obj 1259 367 tgl 15 0 empty empty empty 17 7 0 10 #fcfcfc #000000
#000000 0 1;
#X obj 994 367 spigot;
#X obj 1060 367 tgl 15 0 empty empty empty 17 7 0 10 #fcfcfc #000000
#000000 0 1;
#N canvas 163 394 450 300 state 0;
#X obj 170 89 bng 15 250 50 0 empty empty empty 17 7 0 10 #fcfcfc #000000
#000000;
#X obj 225 70 t b b;
#X obj 170 131 delay 1;
#X obj 225 11 inlet bang;
#X obj 170 224 outlet bang;
#X obj 60 224 outlet bang;
#X obj 225 40 delay 1;
#X connect 0 0 2 0;
#X connect 0 0 5 0;
#X connect 1 0 0 0;
#X connect 1 1 4 0;
#X connect 2 0 4 0;
#X connect 3 0 6 0;
#X connect 6 0 1 0;
#X restore 1007 157 pd state;
#N canvas 163 394 450 300 state 0;
#X obj 170 89 bng 15 250 50 0 empty empty empty 17 7 0 10 #fcfcfc #000000
#000000;
#X obj 225 70 t b b;
#X obj 170 131 delay 1;
#X obj 225 11 inlet bang;
#X obj 170 224 outlet bang;
#X obj 60 224 outlet bang;
#X obj 225 40 delay 1;
#X connect 0 0 2 0;
#X connect 0 0 5 0;
#X connect 1 0 0 0;
#X connect 1 1 4 0;
#X connect 2 0 4 0;
#X connect 3 0 6 0;
#X connect 6 0 1 0;
#X restore 1199 157 pd state;
#X obj 941 138 r \$0-h2;
#X obj 1132 138 r \$0-h3;
#X obj 568 458 r-DADSR~;
#X obj 737 458 r-DADSR~;
#X obj 816 649 spigot;
#X obj 882 649 tgl 15 0 empty empty empty 17 7 0 10 #fcfcfc #000000
#000000 0 1;
#X obj 639 649 spigot;
#X obj 705 649 tgl 15 0 empty empty empty 17 7 0 10 #fcfcfc #000000
#000000 0 1;
#N canvas 163 394 450 300 state 0;
#X obj 170 89 bng 15 250 50 0 empty empty empty 17 7 0 10 #fcfcfc #000000
#000000;
#X obj 225 70 t b b;
#X obj 170 131 delay 1;
#X obj 225 11 inlet bang;
#X obj 170 224 outlet bang;
#X obj 60 224 outlet bang;
#X obj 225 40 delay 1;
#X connect 0 0 2 0;
#X connect 0 0 5 0;
#X connect 1 0 0 0;
#X connect 1 1 4 0;
#X connect 2 0 4 0;
#X connect 3 0 6 0;
#X connect 6 0 1 0;
#X restore 652 439 pd state;
#N canvas 163 394 450 300 state 0;
#X obj 170 89 bng 15 250 50 0 empty empty empty 17 7 0 10 #fcfcfc #000000
#000000;
#X obj 225 70 t b b;
#X obj 170 131 delay 1;
#X obj 225 11 inlet bang;
#X obj 170 224 outlet bang;
#X obj 60 224 outlet bang;
#X obj 225 40 delay 1;
#X connect 0 0 2 0;
#X connect 0 0 5 0;
#X connect 1 0 0 0;
#X connect 1 1 4 0;
#X connect 2 0 4 0;
#X connect 3 0 6 0;
#X connect 6 0 1 0;
#X restore 822 439 pd state;
#X obj 918 458 r-DADSR~;
#X obj 1109 458 r-DADSR~;
#X obj 1188 649 spigot;
#X obj 1254 649 tgl 15 0 empty empty empty 17 7 0 10 #fcfcfc #000000
#000000 0 1;
#X obj 989 649 spigot;
#X obj 1055 649 tgl 15 0 empty empty empty 17 7 0 10 #fcfcfc #000000
#000000 0 1;
#N canvas 163 394 450 300 state 0;
#X obj 170 89 bng 15 250 50 0 empty empty empty 17 7 0 10 #fcfcfc #000000
#000000;
#X obj 225 70 t b b;
#X obj 170 131 delay 1;
#X obj 225 11 inlet bang;
#X obj 170 224 outlet bang;
#X obj 60 224 outlet bang;
#X obj 225 40 delay 1;
#X connect 0 0 2 0;
#X connect 0 0 5 0;
#X connect 1 0 0 0;
#X connect 1 1 4 0;
#X connect 2 0 4 0;
#X connect 3 0 6 0;
#X connect 6 0 1 0;
#X restore 1002 439 pd state;
#N canvas 163 394 450 300 state 0;
#X obj 170 89 bng 15 250 50 0 empty empty empty 17 7 0 10 #fcfcfc #000000
#000000;
#X obj 225 70 t b b;
#X obj 170 131 delay 1;
#X obj 225 11 inlet bang;
#X obj 170 224 outlet bang;
#X obj 60 224 outlet bang;
#X obj 225 40 delay 1;
#X connect 0 0 2 0;
#X connect 0 0 5 0;
#X connect 1 0 0 0;
#X connect 1 1 4 0;
#X connect 2 0 4 0;
#X connect 3 0 6 0;
#X connect 6 0 1 0;
#X restore 1194 439 pd state;
#X obj 553 668 s \$0-main-gui;
#X obj 586 420 r \$0-h4;
#X obj 755 420 r \$0-h5;
#X obj 936 420 r \$0-h6;
#X obj 1127 420 r \$0-h7;
#N canvas 491 378 450 300 init 0;
#X obj 163 55 inlet;
#X msg 163 125 1;
#X obj 163 90 delay 10;
#X obj 163 153 outlet;
#X connect 0 0 2 0;
#X connect 1 0 3 0;
#X connect 2 0 1 0;
#X restore 291 68 pd init;
#N canvas 491 378 450 300 init 0;
#X obj 163 55 inlet;
#X msg 163 125 1;
#X obj 163 90 delay 10;
#X obj 163 153 outlet;
#X connect 0 0 2 0;
#X connect 1 0 3 0;
#X connect 2 0 1 0;
#X restore 354 68 pd init;
#N canvas 491 378 450 300 init 0;
#X obj 163 55 inlet;
#X msg 163 125 1;
#X obj 163 90 delay 10;
#X obj 163 153 outlet;
#X connect 0 0 2 0;
#X connect 1 0 3 0;
#X connect 2 0 1 0;
#X restore 415 68 pd init;
#N canvas 491 378 450 300 init 0;
#X obj 163 55 inlet;
#X msg 163 125 1;
#X obj 163 90 delay 10;
#X obj 163 153 outlet;
#X connect 0 0 2 0;
#X connect 1 0 3 0;
#X connect 2 0 1 0;
#X restore 479 68 pd init;
#N canvas 491 378 450 300 init 0;
#X obj 163 55 inlet;
#X msg 163 125 1;
#X obj 163 90 delay 10;
#X obj 163 153 outlet;
#X connect 0 0 2 0;
#X connect 1 0 3 0;
#X connect 2 0 1 0;
#X restore 291 104 pd init;
#N canvas 491 378 450 300 init 0;
#X obj 163 55 inlet;
#X msg 163 125 1;
#X obj 163 90 delay 10;
#X obj 163 153 outlet;
#X connect 0 0 2 0;
#X connect 1 0 3 0;
#X connect 2 0 1 0;
#X restore 354 104 pd init;
#N canvas 491 378 450 300 init 0;
#X obj 163 55 inlet;
#X msg 163 125 1;
#X obj 163 90 delay 10;
#X obj 163 153 outlet;
#X connect 0 0 2 0;
#X connect 1 0 3 0;
#X connect 2 0 1 0;
#X restore 415 104 pd init;
#N canvas 491 378 450 300 init 0;
#X obj 163 55 inlet;
#X msg 163 125 1;
#X obj 163 90 delay 10;
#X obj 163 153 outlet;
#X connect 0 0 2 0;
#X connect 1 0 3 0;
#X connect 2 0 1 0;
#X restore 479 104 pd init;
#X obj 684 49 select 0 1 2 3 4 5 6;
#X obj 35 419 s \$0-main;
#X obj 346 527 r \$0-main;
#X connect 0 1 15 0;
#X connect 2 1 13 0;
#X connect 3 0 9 0;
#X connect 4 0 10 0;
#X connect 4 0 9 1;
#X connect 5 0 10 0;
#X connect 5 0 9 2;
#X connect 6 0 10 0;
#X connect 6 0 9 4;
#X connect 7 0 4 0;
#X connect 7 1 5 0;
#X connect 7 2 8 0;
#X connect 7 3 6 0;
#X connect 7 4 3 0;
#X connect 8 0 10 0;
#X connect 8 0 9 3;
#X connect 9 0 90 0;
#X connect 10 0 9 0;
#X connect 11 0 27 0;
#X connect 12 0 7 0;
#X connect 13 0 17 0;
#X connect 14 0 13 1;
#X connect 15 0 17 0;
#X connect 16 0 15 1;
#X connect 18 0 11 1;
#X connect 19 0 25 0;
#X connect 20 0 19 1;
#X connect 21 0 20 0;
#X connect 21 0 18 0;
#X connect 21 0 34 0;
#X connect 21 0 37 0;
#X connect 22 0 89 0;
#X connect 23 0 21 0;
#X connect 23 0 39 0;
#X connect 26 0 0 1;
#X connect 28 0 2 1;
#X connect 29 0 0 2;
#X connect 29 1 16 0;
#X connect 30 0 2 2;
#X connect 30 1 14 0;
#X connect 31 0 46 0;
#X connect 32 0 31 1;
#X connect 33 0 35 0;
#X connect 34 0 33 1;
#X connect 36 0 38 0;
#X connect 37 0 36 1;
#X connect 39 0 32 0;
#X connect 39 0 41 0;
#X connect 39 0 43 0;
#X connect 39 0 45 0;
#X connect 40 0 47 0;
#X connect 41 0 40 1;
#X connect 42 0 48 0;
#X connect 43 0 42 1;
#X connect 44 0 49 0;
#X connect 45 0 44 1;
#X connect 50 1 54 0;
#X connect 51 1 52 0;
#X connect 52 0 17 0;
#X connect 53 0 52 1;
#X connect 54 0 17 0;
#X connect 55 0 54 1;
#X connect 56 0 50 2;
#X connect 56 1 55 0;
#X connect 57 0 51 2;
#X connect 57 1 53 0;
#X connect 58 0 50 1;
#X connect 59 0 51 1;
#X connect 60 1 64 0;
#X connect 61 1 62 0;
#X connect 62 0 76 0;
#X connect 63 0 62 1;
#X connect 64 0 76 0;
#X connect 65 0 64 1;
#X connect 66 0 60 2;
#X connect 66 1 65 0;
#X connect 67 0 61 2;
#X connect 67 1 63 0;
#X connect 68 1 72 0;
#X connect 69 1 70 0;
#X connect 70 0 76 0;
#X connect 71 0 70 1;
#X connect 72 0 76 0;
#X connect 73 0 72 1;
#X connect 74 0 68 2;
#X connect 74 1 73 0;
#X connect 75 0 69 2;
#X connect 75 1 71 0;
#X connect 77 0 60 1;
#X connect 78 0 61 1;
#X connect 79 0 68 1;
#X connect 80 0 69 1;
#X connect 81 0 20 0;
#X connect 82 0 18 0;
#X connect 83 0 34 0;
#X connect 84 0 37 0;
#X connect 85 0 32 0;
#X connect 86 0 41 0;
#X connect 87 0 43 0;
#X connect 88 0 45 0;
#X connect 89 0 29 0;
#X connect 89 0 24 0;
#X connect 89 0 81 0;
#X connect 89 1 30 0;
#X connect 89 1 24 0;
#X connect 89 1 82 0;
#X connect 89 2 56 0;
#X connect 89 2 24 0;
#X connect 89 2 83 0;
#X connect 89 3 57 0;
#X connect 89 3 24 0;
#X connect 89 3 84 0;
#X connect 89 4 66 0;
#X connect 89 4 24 0;
#X connect 89 4 85 0;
#X connect 89 5 67 0;
#X connect 89 5 24 0;
#X connect 89 5 86 0;
#X connect 89 6 74 0;
#X connect 89 6 24 0;
#X connect 89 6 87 0;
#X connect 89 7 75 0;
#X connect 89 7 88 0;
#X connect 89 7 24 0;
#X connect 91 0 19 0;
#X connect 91 0 11 0;
#X connect 91 0 33 0;
#X connect 91 0 36 0;
#X connect 91 0 31 0;
#X connect 91 0 40 0;
#X connect 91 0 42 0;
#X connect 91 0 44 0;
#X coords 0 -1 1 1 150 200 1 20 150;
#X restore 11 638 pd allone;
#X obj 170 220 main-DADSR;
#X obj 170 100 harmony-10-reverse-pack;
#X obj 550 0 OSC, f 6;
#X obj 440 480 hsl 128 15 0.008 0.8 0 0 empty empty empty -2 -8 0 10
#fcfcfc #000000 #000000 0 1;
#N canvas 374 436 497 482 ResiveOsc 0;
#X obj 10 160 loadbang;
#X obj 130 290 sendOSC;
#X obj 210 170 t b list b;
#X msg 212 242 ];
#X msg 440 240 [;
#X obj 200 40 inlet;
#X obj 342 138 print;
#X msg 250 240 send /DADSR \$1 \$2 \$3 \$4 \$5;
#X msg 290 350 connect 192.168.56.1 12121;
#X msg 20 190 connect localhost 12121;
#X msg 300 390 connect 127.0.0.1 12121;
#X msg 10 410 connect localhost 1122;
#X msg 100 230 disconnect;
#X connect 0 0 11 0;
#X connect 0 0 9 0;
#X connect 2 0 3 0;
#X connect 2 1 7 0;
#X connect 2 2 4 0;
#X connect 3 0 1 0;
#X connect 4 0 1 0;
#X connect 5 0 2 0;
#X connect 7 0 1 0;
#X connect 8 0 1 0;
#X connect 9 0 1 0;
#X connect 10 0 1 0;
#X connect 12 0 1 0;
#X restore 400 570 pd ResiveOsc;
#X connect 0 0 1 0;
#X connect 0 1 3 0;
#X connect 1 0 12 0;
#X connect 2 0 11 11;
#X connect 4 0 12 2;
#X connect 5 0 8 1;
#X connect 8 0 7 0;
#X connect 8 0 7 1;
#X connect 11 0 8 0;
#X connect 11 1 8 0;
#X connect 11 2 8 0;
#X connect 11 3 8 0;
#X connect 11 4 8 0;
#X connect 11 5 8 0;
#X connect 11 6 8 0;
#X connect 11 7 8 0;
#X connect 11 8 8 0;
#X connect 11 9 8 0;
#X connect 12 0 11 0;
#X connect 12 1 11 1;
#X connect 12 2 11 2;
#X connect 12 3 11 3;
#X connect 12 4 11 4;
#X connect 12 5 11 5;
#X connect 12 6 11 6;
#X connect 12 7 11 7;
#X connect 12 8 11 8;
#X connect 12 9 11 9;
#X connect 12 10 6 0;
#X connect 13 0 12 1;
#X connect 13 1 4 0;
#X connect 13 1 14 0;
#X connect 13 2 11 10;
#X connect 13 3 1 0;
#X connect 13 4 3 0;
#X connect 13 5 11 12;
#X connect 14 0 7 2;
