#N canvas 272 436 450 300 12;
#X floatatom 98 90 5 0 0 0 - - - 0;
#X obj 98 133 phasor~;
#X obj 98 159 -~ 0.5;
#X obj 98 185 clip~ 0 0.5;
#X obj 197 134 phasor~;
#X obj 197 160 -~ 0.5;
#X obj 197 186 clip~ 0 0.5;
#X obj 197 108 * -1;
#X msg 144 78 1;
#X obj 98 62 inlet;
#X obj 98 269 outlet~;
#X msg 243 78 0.5;
#X obj 179 59 loadbang;
#X obj 322 226 *~ 4;
#X obj 322 249 -~ 1;
#X obj 98 217 *~ 2;
#X obj 98 240 -~ 0;
#X connect 0 0 1 0;
#X connect 0 0 7 0;
#X connect 1 0 2 0;
#X connect 2 0 3 0;
#X connect 3 0 15 0;
#X connect 4 0 5 0;
#X connect 5 0 6 0;
#X connect 6 0 15 0;
#X connect 7 0 4 0;
#X connect 8 0 1 1;
#X connect 9 0 0 0;
#X connect 11 0 4 1;
#X connect 12 0 8 0;
#X connect 12 0 11 0;
#X connect 13 0 14 0;
#X connect 15 0 16 0;
#X connect 16 0 10 0;
