#N canvas 120 447 450 300 12;
#X floatatom 103 71 5 0 0 0 - - -;
#X obj 103 114 phasor~;
#X obj 103 140 -~ 0.5;
#X obj 103 166 clip~ 0 0.5;
#X obj 202 115 phasor~;
#X obj 202 141 -~ 0.5;
#X obj 202 167 clip~ 0 0.5;
#X obj 202 89 * -1;
#X msg 166 95 1;
#X obj 103 192 *~ 1.25;
#X obj 103 43 inlet;
#X obj 102 249 outlet~;
#X obj 103 216 -~ 0.25;
#X connect 0 0 1 0;
#X connect 0 0 7 0;
#X connect 1 0 2 0;
#X connect 2 0 3 0;
#X connect 3 0 9 0;
#X connect 4 0 5 0;
#X connect 5 0 6 0;
#X connect 6 0 9 0;
#X connect 7 0 4 0;
#X connect 8 0 1 1;
#X connect 8 0 4 1;
#X connect 9 0 12 0;
#X connect 10 0 0 0;
#X connect 12 0 11 0;
